<svg width="851" height="497" viewBox="0 0 851 497" fill="none" xmlns="http://www.w3.org/2000/svg">
<g filter="url(#filter0_d_0_127)">
<rect x="31.5" y="31.3906" width="788.5" height="434" rx="15" fill="white" shape-rendering="crispEdges"/>
<path d="M31.5 46.3906C31.5 38.1064 38.2157 31.3906 46.5 31.3906H805C813.284 31.3906 820 38.1064 820 46.3906V84.3906H31.5V46.3906Z" fill="white"/>
<path d="M47.994 65.5938V53.8217H50.136L53.808 60.4457L55.014 62.9478H55.086C55.038 62.3477 54.978 61.6937 54.906 60.9857C54.846 60.2777 54.816 59.5937 54.816 58.9337V53.8217H56.814V65.5938H54.672L51 58.9697L49.794 56.4677H49.722C49.77 57.0917 49.824 57.7457 49.884 58.4297C49.956 59.1137 49.992 59.7857 49.992 60.4457V65.5938H47.994ZM62.2545 65.8098C61.3065 65.8098 60.6165 65.5037 60.1845 64.8917C59.7525 64.2797 59.5365 63.4157 59.5365 62.2997V56.7557H61.6065V62.0297C61.6065 62.7617 61.7145 63.2777 61.9305 63.5777C62.1465 63.8777 62.4945 64.0277 62.9745 64.0277C63.3585 64.0277 63.6945 63.9317 63.9825 63.7397C64.2825 63.5477 64.6005 63.2357 64.9365 62.8037V56.7557H67.0065V65.5938H65.3145L65.1525 64.2977H65.0985C64.7145 64.7537 64.2945 65.1197 63.8385 65.3957C63.3825 65.6717 62.8545 65.8098 62.2545 65.8098ZM69.6285 65.5938V56.7557H71.3385L71.4825 57.9617H71.5545C71.9265 57.5657 72.3285 57.2297 72.7605 56.9537C73.2045 56.6777 73.7025 56.5397 74.2545 56.5397C74.9025 56.5397 75.4185 56.6837 75.8025 56.9717C76.1985 57.2477 76.4985 57.6317 76.7025 58.1237C77.1225 57.6677 77.5605 57.2897 78.0165 56.9897C78.4845 56.6897 78.9945 56.5397 79.5465 56.5397C80.4825 56.5397 81.1725 56.8457 81.6165 57.4577C82.0605 58.0697 82.2825 58.9337 82.2825 60.0497V65.5938H80.1945V60.3197C80.1945 59.5877 80.0805 59.0717 79.8525 58.7717C79.6365 58.4717 79.3005 58.3217 78.8445 58.3217C78.2925 58.3217 77.6745 58.6877 76.9905 59.4197V65.5938H74.9205V60.3197C74.9205 59.5877 74.8065 59.0717 74.5785 58.7717C74.3625 58.4717 74.0205 58.3217 73.5525 58.3217C73.0005 58.3217 72.3825 58.6877 71.6985 59.4197V65.5938H69.6285ZM89.0824 65.8098C88.2424 65.8098 87.4384 65.4257 86.6704 64.6577H86.6164L86.4364 65.5938H84.7984V52.8857H86.8684V56.1617L86.8144 57.6377C87.1864 57.3137 87.5944 57.0497 88.0384 56.8457C88.4824 56.6417 88.9264 56.5397 89.3704 56.5397C90.4744 56.5397 91.3324 56.9477 91.9444 57.7637C92.5564 58.5797 92.8624 59.6657 92.8624 61.0217C92.8624 62.0297 92.6824 62.8937 92.3224 63.6137C91.9624 64.3217 91.4944 64.8677 90.9184 65.2517C90.3544 65.6237 89.7424 65.8098 89.0824 65.8098ZM88.6504 64.0997C89.2384 64.0997 89.7304 63.8417 90.1264 63.3257C90.5224 62.8097 90.7204 62.0537 90.7204 61.0577C90.7204 60.1697 90.5704 59.4797 90.2704 58.9877C89.9704 58.4957 89.4844 58.2497 88.8124 58.2497C88.1884 58.2497 87.5404 58.5797 86.8684 59.2397V63.3617C87.1804 63.6257 87.4864 63.8177 87.7864 63.9377C88.0984 64.0457 88.3864 64.0997 88.6504 64.0997ZM98.721 65.8098C97.905 65.8098 97.167 65.6297 96.507 65.2697C95.847 64.8977 95.325 64.3697 94.941 63.6857C94.557 62.9897 94.365 62.1557 94.365 61.1837C94.365 60.2237 94.557 59.3957 94.941 58.6997C95.337 58.0037 95.847 57.4697 96.471 57.0977C97.095 56.7257 97.749 56.5397 98.433 56.5397C99.237 56.5397 99.909 56.7197 100.449 57.0797C100.989 57.4277 101.397 57.9197 101.673 58.5557C101.949 59.1797 102.087 59.9057 102.087 60.7337C102.087 61.1657 102.057 61.5017 101.997 61.7417H96.381C96.477 62.5217 96.759 63.1277 97.227 63.5597C97.695 63.9917 98.283 64.2077 98.991 64.2077C99.375 64.2077 99.729 64.1537 100.053 64.0457C100.389 63.9257 100.719 63.7637 101.043 63.5597L101.745 64.8557C101.325 65.1317 100.857 65.3597 100.341 65.5397C99.825 65.7198 99.285 65.8098 98.721 65.8098ZM96.363 60.3377H100.287C100.287 59.6537 100.137 59.1197 99.837 58.7357C99.537 58.3397 99.087 58.1417 98.487 58.1417C97.971 58.1417 97.509 58.3337 97.101 58.7177C96.705 59.0897 96.459 59.6297 96.363 60.3377ZM104.064 65.5938V56.7557H105.774L105.918 58.3217H105.99C106.302 57.7457 106.68 57.3077 107.124 57.0077C107.568 56.6957 108.024 56.5397 108.492 56.5397C108.912 56.5397 109.248 56.5997 109.5 56.7197L109.14 58.5197C108.984 58.4717 108.84 58.4357 108.708 58.4117C108.576 58.3877 108.414 58.3757 108.222 58.3757C107.874 58.3757 107.508 58.5137 107.124 58.7897C106.74 59.0537 106.41 59.5217 106.134 60.1937V65.5938H104.064ZM118 65.8098C117.268 65.8098 116.584 65.6297 115.948 65.2697C115.312 64.8977 114.796 64.3697 114.4 63.6857C114.004 62.9897 113.806 62.1557 113.806 61.1837C113.806 60.1997 114.004 59.3657 114.4 58.6817C114.796 57.9857 115.312 57.4577 115.948 57.0977C116.584 56.7257 117.268 56.5397 118 56.5397C118.744 56.5397 119.434 56.7257 120.07 57.0977C120.706 57.4577 121.222 57.9857 121.618 58.6817C122.014 59.3657 122.212 60.1997 122.212 61.1837C122.212 62.1557 122.014 62.9897 121.618 63.6857C121.222 64.3697 120.706 64.8977 120.07 65.2697C119.434 65.6297 118.744 65.8098 118 65.8098ZM118 64.1177C118.648 64.1177 119.158 63.8477 119.53 63.3077C119.902 62.7677 120.088 62.0597 120.088 61.1837C120.088 60.2957 119.902 59.5817 119.53 59.0417C119.158 58.5017 118.648 58.2317 118 58.2317C117.352 58.2317 116.842 58.5017 116.47 59.0417C116.11 59.5817 115.93 60.2957 115.93 61.1837C115.93 62.0597 116.11 62.7677 116.47 63.3077C116.842 63.8477 117.352 64.1177 118 64.1177ZM124.551 65.5938V58.3937H123.363V56.8457L124.551 56.7557V55.8377C124.551 54.9137 124.779 54.1577 125.235 53.5697C125.691 52.9697 126.441 52.6697 127.485 52.6697C127.797 52.6697 128.097 52.6997 128.385 52.7597C128.673 52.8197 128.913 52.8917 129.105 52.9757L128.709 54.5237C128.385 54.3797 128.061 54.3077 127.737 54.3077C126.993 54.3077 126.621 54.8057 126.621 55.8017V56.7557H128.349V58.3937H126.621V65.5938H124.551ZM137.125 65.8098C136.333 65.8098 135.565 65.6597 134.821 65.3597C134.089 65.0597 133.441 64.6337 132.877 64.0817L134.101 62.6597C134.521 63.0557 135.001 63.3797 135.541 63.6317C136.081 63.8717 136.621 63.9917 137.161 63.9917C137.833 63.9917 138.343 63.8537 138.691 63.5777C139.039 63.3017 139.213 62.9357 139.213 62.4797C139.213 61.9877 139.039 61.6337 138.691 61.4177C138.355 61.2017 137.923 60.9797 137.395 60.7517L135.775 60.0497C135.391 59.8817 135.013 59.6657 134.641 59.4017C134.281 59.1377 133.981 58.8017 133.741 58.3937C133.513 57.9857 133.399 57.4937 133.399 56.9177C133.399 56.2937 133.567 55.7357 133.903 55.2437C134.251 54.7397 134.719 54.3437 135.307 54.0557C135.907 53.7557 136.591 53.6057 137.359 53.6057C138.043 53.6057 138.703 53.7437 139.339 54.0197C139.975 54.2837 140.521 54.6437 140.977 55.0997L139.915 56.4317C139.543 56.1197 139.147 55.8737 138.727 55.6937C138.319 55.5137 137.863 55.4238 137.359 55.4238C136.807 55.4238 136.357 55.5497 136.009 55.8017C135.673 56.0417 135.505 56.3777 135.505 56.8097C135.505 57.1097 135.589 57.3617 135.757 57.5657C135.937 57.7577 136.171 57.9257 136.459 58.0697C136.747 58.2017 137.053 58.3337 137.377 58.4657L138.979 59.1317C139.675 59.4317 140.245 59.8277 140.689 60.3197C141.133 60.7997 141.355 61.4657 141.355 62.3177C141.355 62.9537 141.187 63.5357 140.851 64.0637C140.515 64.5917 140.029 65.0177 139.393 65.3417C138.769 65.6537 138.013 65.8098 137.125 65.8098ZM145.955 65.8098C144.935 65.8098 144.209 65.5157 143.777 64.9277C143.357 64.3277 143.147 63.5537 143.147 62.6057V58.3937H141.887V56.8457L143.255 56.7557L143.507 54.3438H145.235V56.7557H147.485V58.3937H145.235V62.6057C145.235 63.6377 145.649 64.1537 146.477 64.1537C146.633 64.1537 146.795 64.1357 146.963 64.0997C147.131 64.0517 147.275 64.0037 147.395 63.9557L147.755 65.4857C147.515 65.5698 147.239 65.6418 146.927 65.7018C146.627 65.7738 146.303 65.8098 145.955 65.8098ZM151.973 65.8098C151.025 65.8098 150.335 65.5037 149.903 64.8917C149.471 64.2797 149.255 63.4157 149.255 62.2997V56.7557H151.325V62.0297C151.325 62.7617 151.433 63.2777 151.649 63.5777C151.865 63.8777 152.213 64.0277 152.693 64.0277C153.077 64.0277 153.413 63.9317 153.701 63.7397C154.001 63.5477 154.319 63.2357 154.655 62.8037V56.7557H156.725V65.5938H155.033L154.871 64.2977H154.817C154.433 64.7537 154.013 65.1197 153.557 65.3957C153.101 65.6717 152.573 65.8098 151.973 65.8098ZM162.443 65.8098C161.339 65.8098 160.457 65.4017 159.797 64.5857C159.137 63.7697 158.807 62.6357 158.807 61.1837C158.807 60.2237 158.981 59.3957 159.329 58.6997C159.689 58.0037 160.157 57.4697 160.733 57.0977C161.309 56.7257 161.915 56.5397 162.551 56.5397C163.055 56.5397 163.481 56.6297 163.829 56.8097C164.189 56.9777 164.537 57.2117 164.873 57.5117L164.801 56.0898V52.8857H166.871V65.5938H165.161L165.017 64.6397H164.945C164.621 64.9637 164.243 65.2397 163.811 65.4677C163.379 65.6957 162.923 65.8098 162.443 65.8098ZM162.947 64.0997C163.607 64.0997 164.225 63.7697 164.801 63.1097V58.9877C164.501 58.7117 164.201 58.5197 163.901 58.4117C163.601 58.3037 163.301 58.2497 163.001 58.2497C162.437 58.2497 161.951 58.5077 161.543 59.0237C161.147 59.5277 160.949 60.2417 160.949 61.1657C160.949 62.1137 161.123 62.8397 161.471 63.3438C161.819 63.8477 162.311 64.0997 162.947 64.0997ZM173.287 65.8098C172.471 65.8098 171.733 65.6297 171.073 65.2697C170.413 64.8977 169.891 64.3697 169.507 63.6857C169.123 62.9897 168.931 62.1557 168.931 61.1837C168.931 60.2237 169.123 59.3957 169.507 58.6997C169.903 58.0037 170.413 57.4697 171.037 57.0977C171.661 56.7257 172.315 56.5397 172.999 56.5397C173.803 56.5397 174.475 56.7197 175.015 57.0797C175.555 57.4277 175.963 57.9197 176.239 58.5557C176.515 59.1797 176.653 59.9057 176.653 60.7337C176.653 61.1657 176.623 61.5017 176.563 61.7417H170.947C171.043 62.5217 171.325 63.1277 171.793 63.5597C172.261 63.9917 172.849 64.2077 173.557 64.2077C173.941 64.2077 174.295 64.1537 174.619 64.0457C174.955 63.9257 175.285 63.7637 175.609 63.5597L176.311 64.8557C175.891 65.1317 175.423 65.3597 174.907 65.5397C174.391 65.7198 173.851 65.8098 173.287 65.8098ZM170.929 60.3377H174.853C174.853 59.6537 174.703 59.1197 174.403 58.7357C174.103 58.3397 173.653 58.1417 173.053 58.1417C172.537 58.1417 172.075 58.3337 171.667 58.7177C171.271 59.0897 171.025 59.6297 170.929 60.3377ZM178.63 65.5938V56.7557H180.34L180.484 57.9437H180.556C180.952 57.5597 181.384 57.2297 181.852 56.9537C182.32 56.6777 182.854 56.5397 183.454 56.5397C184.402 56.5397 185.092 56.8457 185.524 57.4577C185.956 58.0697 186.172 58.9337 186.172 60.0497V65.5938H184.102V60.3197C184.102 59.5877 183.994 59.0717 183.778 58.7717C183.562 58.4717 183.208 58.3217 182.716 58.3217C182.332 58.3217 181.99 58.4177 181.69 58.6097C181.402 58.7897 181.072 59.0597 180.7 59.4197V65.5938H178.63ZM191.817 65.8098C190.797 65.8098 190.071 65.5157 189.639 64.9277C189.219 64.3277 189.009 63.5537 189.009 62.6057V58.3937H187.749V56.8457L189.117 56.7557L189.369 54.3438H191.097V56.7557H193.347V58.3937H191.097V62.6057C191.097 63.6377 191.511 64.1537 192.339 64.1537C192.495 64.1537 192.657 64.1357 192.825 64.0997C192.993 64.0517 193.137 64.0037 193.257 63.9557L193.617 65.4857C193.377 65.5698 193.101 65.6418 192.789 65.7018C192.489 65.7738 192.165 65.8098 191.817 65.8098ZM197.497 65.8098C196.897 65.8098 196.297 65.6957 195.697 65.4677C195.097 65.2277 194.581 64.9337 194.149 64.5857L195.121 63.2537C195.517 63.5537 195.913 63.7937 196.309 63.9737C196.705 64.1537 197.125 64.2437 197.569 64.2437C198.049 64.2437 198.403 64.1417 198.631 63.9377C198.859 63.7337 198.973 63.4817 198.973 63.1817C198.973 62.9297 198.877 62.7257 198.685 62.5697C198.505 62.4017 198.271 62.2577 197.983 62.1377C197.695 62.0057 197.395 61.8797 197.083 61.7597C196.699 61.6157 196.315 61.4417 195.931 61.2377C195.559 61.0217 195.253 60.7517 195.013 60.4277C194.773 60.0917 194.653 59.6777 194.653 59.1857C194.653 58.4057 194.941 57.7697 195.517 57.2777C196.093 56.7857 196.873 56.5397 197.857 56.5397C198.481 56.5397 199.039 56.6477 199.531 56.8637C200.023 57.0797 200.449 57.3257 200.809 57.6017L199.855 58.8617C199.543 58.6337 199.225 58.4537 198.901 58.3217C198.589 58.1777 198.259 58.1057 197.911 58.1057C197.467 58.1057 197.137 58.2017 196.921 58.3937C196.705 58.5737 196.597 58.8017 196.597 59.0777C196.597 59.4257 196.777 59.6897 197.137 59.8697C197.497 60.0497 197.917 60.2237 198.397 60.3917C198.805 60.5357 199.201 60.7157 199.585 60.9317C199.969 61.1357 200.287 61.4057 200.539 61.7417C200.803 62.0777 200.935 62.5217 200.935 63.0737C200.935 63.8297 200.641 64.4777 200.053 65.0177C199.465 65.5457 198.613 65.8098 197.497 65.8098Z" fill="black"/>
<rect x="685.844" y="55.8906" width="9" height="9" rx="4.5" fill="#3D5EE1"/>
<path d="M706.531 59.2466V62.1094C706.434 62.2526 706.28 62.4137 706.069 62.5928C705.858 62.7682 705.566 62.9222 705.193 63.0547C704.825 63.1836 704.348 63.248 703.765 63.248C703.288 63.248 702.85 63.1657 702.449 63.001C702.051 62.8327 701.706 62.5892 701.412 62.2705C701.122 61.9482 700.896 61.5579 700.735 61.0996C700.578 60.6377 700.499 60.1149 700.499 59.5312V58.9243C700.499 58.3407 700.567 57.8197 700.703 57.3613C700.843 56.903 701.047 56.5145 701.315 56.1958C701.584 55.8735 701.913 55.63 702.304 55.4653C702.694 55.297 703.142 55.2129 703.646 55.2129C704.244 55.2129 704.744 55.3167 705.145 55.5244C705.55 55.7285 705.865 56.0114 706.09 56.373C706.319 56.7347 706.466 57.1465 706.531 57.6084H705.494C705.448 57.3255 705.354 57.0677 705.215 56.835C705.079 56.6022 704.884 56.416 704.629 56.2764C704.375 56.1331 704.048 56.0615 703.646 56.0615C703.285 56.0615 702.972 56.1278 702.707 56.2603C702.442 56.3927 702.223 56.5825 702.051 56.8296C701.879 57.0767 701.75 57.3757 701.665 57.7266C701.582 58.0775 701.541 58.4731 701.541 58.9136V59.5312C701.541 59.9824 701.593 60.3853 701.697 60.7397C701.804 61.0942 701.956 61.3968 702.153 61.6475C702.35 61.8945 702.585 62.0825 702.857 62.2114C703.133 62.3403 703.437 62.4048 703.77 62.4048C704.139 62.4048 704.438 62.3743 704.667 62.3135C704.896 62.249 705.075 62.1738 705.204 62.0879C705.333 61.9984 705.431 61.9142 705.5 61.8354V60.0845H703.689V59.2466H706.531ZM709.179 57.3291V63.1406H708.18V57.3291H709.179ZM708.104 55.7876C708.104 55.6265 708.153 55.4904 708.25 55.3794C708.35 55.2684 708.497 55.2129 708.69 55.2129C708.88 55.2129 709.025 55.2684 709.125 55.3794C709.229 55.4904 709.281 55.6265 709.281 55.7876C709.281 55.9416 709.229 56.0741 709.125 56.1851C709.025 56.2925 708.88 56.3462 708.69 56.3462C708.497 56.3462 708.35 56.2925 708.25 56.1851C708.153 56.0741 708.104 55.9416 708.104 55.7876ZM711.768 58.2422V63.1406H710.774V57.3291H711.741L711.768 58.2422ZM713.583 57.2969L713.578 58.2207C713.495 58.2028 713.417 58.1921 713.341 58.1885C713.27 58.1813 713.187 58.1777 713.094 58.1777C712.865 58.1777 712.663 58.2135 712.487 58.2852C712.312 58.3568 712.163 58.457 712.042 58.5859C711.92 58.7148 711.823 58.8688 711.751 59.0479C711.683 59.2233 711.639 59.4167 711.617 59.6279L711.338 59.7891C711.338 59.4382 711.372 59.1087 711.44 58.8008C711.512 58.4928 711.621 58.2207 711.768 57.9844C711.914 57.7445 712.101 57.5583 712.326 57.4258C712.555 57.2897 712.827 57.2217 713.143 57.2217C713.214 57.2217 713.297 57.2306 713.39 57.2485C713.483 57.2629 713.547 57.279 713.583 57.2969ZM715.581 54.8906V63.1406H714.582V54.8906H715.581ZM720.56 61.5991C720.56 61.4559 720.528 61.3234 720.463 61.2017C720.403 61.0763 720.275 60.9635 720.082 60.8633C719.892 60.7594 719.606 60.6699 719.223 60.5947C718.9 60.5267 718.609 60.4461 718.347 60.353C718.089 60.2599 717.869 60.1471 717.687 60.0146C717.507 59.8822 717.37 59.7264 717.273 59.5474C717.176 59.3683 717.128 59.1589 717.128 58.9189C717.128 58.6898 717.178 58.4731 717.278 58.269C717.382 58.0649 717.527 57.8841 717.713 57.7266C717.903 57.569 718.131 57.4455 718.396 57.356C718.66 57.2664 718.956 57.2217 719.282 57.2217C719.747 57.2217 720.145 57.304 720.474 57.4688C720.804 57.6335 721.056 57.8537 721.231 58.1294C721.407 58.4015 721.495 58.7041 721.495 59.0371H720.501C720.501 58.876 720.453 58.7202 720.356 58.5698C720.263 58.4159 720.125 58.2887 719.942 58.1885C719.763 58.0882 719.543 58.0381 719.282 58.0381C719.006 58.0381 718.782 58.0811 718.61 58.167C718.442 58.2493 718.319 58.355 718.24 58.4839C718.165 58.6128 718.127 58.7489 718.127 58.8921C718.127 58.9995 718.145 59.0962 718.181 59.1821C718.22 59.2645 718.288 59.3415 718.385 59.4131C718.481 59.4811 718.618 59.5456 718.793 59.6064C718.968 59.6673 719.192 59.7282 719.464 59.7891C719.941 59.8965 720.333 60.0254 720.641 60.1758C720.949 60.3262 721.178 60.5106 721.328 60.729C721.479 60.9474 721.554 61.2124 721.554 61.5239C721.554 61.7782 721.5 62.0109 721.393 62.2222C721.289 62.4334 721.137 62.616 720.936 62.77C720.739 62.9204 720.503 63.0386 720.227 63.1245C719.955 63.2069 719.649 63.248 719.309 63.248C718.797 63.248 718.363 63.1567 718.009 62.9741C717.654 62.7915 717.386 62.5552 717.203 62.2651C717.021 61.9751 716.929 61.6689 716.929 61.3467H717.928C717.943 61.6188 718.021 61.8354 718.165 61.9966C718.308 62.1541 718.483 62.2669 718.691 62.335C718.899 62.3994 719.104 62.4316 719.309 62.4316C719.581 62.4316 719.808 62.3958 719.991 62.3242C720.177 62.2526 720.318 62.1541 720.415 62.0288C720.512 61.9035 720.56 61.7603 720.56 61.5991Z" fill="#808191"/>
<rect x="732.078" y="55.8906" width="9" height="9" rx="4.5" fill="#70C4CF"/>
<path d="M749.773 59.4829H747.792L747.781 58.6504H749.58C749.877 58.6504 750.137 58.6003 750.359 58.5C750.581 58.3997 750.753 58.2565 750.875 58.0703C751 57.8805 751.062 57.6549 751.062 57.3936C751.062 57.1071 751.007 56.8743 750.896 56.6953C750.789 56.5127 750.622 56.3802 750.396 56.2979C750.174 56.2119 749.892 56.1689 749.548 56.1689H748.022V63.1406H746.986V55.3203H749.548C749.949 55.3203 750.307 55.3615 750.622 55.4438C750.937 55.5226 751.204 55.6479 751.422 55.8198C751.644 55.9881 751.813 56.203 751.927 56.4644C752.042 56.7257 752.099 57.0391 752.099 57.4043C752.099 57.7266 752.017 58.0184 751.852 58.2798C751.687 58.5376 751.458 58.7489 751.165 58.9136C750.875 59.0783 750.534 59.1839 750.144 59.2305L749.773 59.4829ZM749.725 63.1406H747.383L747.969 62.2974H749.725C750.055 62.2974 750.334 62.2401 750.563 62.1255C750.796 62.0109 750.973 61.8498 751.095 61.6421C751.216 61.4308 751.277 61.182 751.277 60.8955C751.277 60.6055 751.225 60.3548 751.122 60.1436C751.018 59.9323 750.855 59.7694 750.633 59.6548C750.411 59.5402 750.124 59.4829 749.773 59.4829H748.296L748.307 58.6504H750.327L750.547 58.9512C750.923 58.9834 751.242 59.0908 751.503 59.2734C751.764 59.4525 751.963 59.6816 752.099 59.9609C752.239 60.2402 752.309 60.5482 752.309 60.8848C752.309 61.3717 752.201 61.7835 751.986 62.1201C751.775 62.4531 751.476 62.7074 751.089 62.8828C750.703 63.0547 750.248 63.1406 749.725 63.1406ZM753.426 60.2993V60.1758C753.426 59.7568 753.487 59.3683 753.608 59.0103C753.73 58.6486 753.906 58.3353 754.135 58.0703C754.364 57.8018 754.641 57.5941 754.967 57.4473C755.293 57.2969 755.658 57.2217 756.063 57.2217C756.471 57.2217 756.838 57.2969 757.164 57.4473C757.493 57.5941 757.773 57.8018 758.002 58.0703C758.235 58.3353 758.412 58.6486 758.534 59.0103C758.655 59.3683 758.716 59.7568 758.716 60.1758V60.2993C758.716 60.7183 758.655 61.1068 758.534 61.4648C758.412 61.8229 758.235 62.1362 758.002 62.4048C757.773 62.6698 757.495 62.8774 757.169 63.0278C756.847 63.1746 756.482 63.248 756.074 63.248C755.666 63.248 755.299 63.1746 754.973 63.0278C754.647 62.8774 754.368 62.6698 754.135 62.4048C753.906 62.1362 753.73 61.8229 753.608 61.4648C753.487 61.1068 753.426 60.7183 753.426 60.2993ZM754.419 60.1758V60.2993C754.419 60.5894 754.453 60.8633 754.521 61.1211C754.59 61.3753 754.692 61.6009 754.828 61.7979C754.967 61.9948 755.141 62.1506 755.349 62.2651C755.556 62.3761 755.798 62.4316 756.074 62.4316C756.346 62.4316 756.584 62.3761 756.788 62.2651C756.996 62.1506 757.168 61.9948 757.304 61.7979C757.44 61.6009 757.542 61.3753 757.61 61.1211C757.681 60.8633 757.717 60.5894 757.717 60.2993V60.1758C757.717 59.8893 757.681 59.619 757.61 59.3647C757.542 59.1069 757.438 58.8796 757.298 58.6826C757.162 58.4821 756.99 58.3245 756.783 58.21C756.579 58.0954 756.339 58.0381 756.063 58.0381C755.791 58.0381 755.551 58.0954 755.343 58.21C755.139 58.3245 754.967 58.4821 754.828 58.6826C754.692 58.8796 754.59 59.1069 754.521 59.3647C754.453 59.619 754.419 59.8893 754.419 60.1758ZM761.509 62.5391L763.126 57.3291H764.189L761.858 64.0376C761.805 64.1808 761.733 64.3348 761.644 64.4995C761.558 64.6678 761.447 64.8271 761.311 64.9775C761.174 65.1279 761.01 65.2497 760.816 65.3428C760.627 65.4395 760.399 65.4878 760.134 65.4878C760.056 65.4878 759.955 65.4771 759.833 65.4556C759.712 65.4341 759.626 65.4162 759.576 65.4019L759.57 64.5962C759.599 64.5998 759.644 64.6034 759.705 64.6069C759.769 64.6141 759.814 64.6177 759.839 64.6177C760.064 64.6177 760.256 64.5872 760.414 64.5264C760.571 64.4691 760.704 64.3706 760.811 64.231C760.922 64.0949 761.017 63.9069 761.096 63.667L761.509 62.5391ZM760.322 57.3291L761.832 61.8408L762.089 62.8882L761.375 63.2534L759.237 57.3291H760.322ZM768.47 61.5991C768.47 61.4559 768.438 61.3234 768.374 61.2017C768.313 61.0763 768.186 60.9635 767.992 60.8633C767.802 60.7594 767.516 60.6699 767.133 60.5947C766.811 60.5267 766.519 60.4461 766.257 60.353C766 60.2599 765.779 60.1471 765.597 60.0146C765.418 59.8822 765.28 59.7264 765.183 59.5474C765.086 59.3683 765.038 59.1589 765.038 58.9189C765.038 58.6898 765.088 58.4731 765.188 58.269C765.292 58.0649 765.437 57.8841 765.624 57.7266C765.813 57.569 766.041 57.4455 766.306 57.356C766.571 57.2664 766.866 57.2217 767.192 57.2217C767.657 57.2217 768.055 57.304 768.384 57.4688C768.714 57.6335 768.966 57.8537 769.142 58.1294C769.317 58.4015 769.405 58.7041 769.405 59.0371H768.411C768.411 58.876 768.363 58.7202 768.266 58.5698C768.173 58.4159 768.035 58.2887 767.853 58.1885C767.674 58.0882 767.453 58.0381 767.192 58.0381C766.916 58.0381 766.692 58.0811 766.521 58.167C766.352 58.2493 766.229 58.355 766.15 58.4839C766.075 58.6128 766.037 58.7489 766.037 58.8921C766.037 58.9995 766.055 59.0962 766.091 59.1821C766.13 59.2645 766.198 59.3415 766.295 59.4131C766.392 59.4811 766.528 59.5456 766.703 59.6064C766.879 59.6673 767.102 59.7282 767.375 59.7891C767.851 59.8965 768.243 60.0254 768.551 60.1758C768.859 60.3262 769.088 60.5106 769.238 60.729C769.389 60.9474 769.464 61.2124 769.464 61.5239C769.464 61.7782 769.41 62.0109 769.303 62.2222C769.199 62.4334 769.047 62.616 768.846 62.77C768.649 62.9204 768.413 63.0386 768.137 63.1245C767.865 63.2069 767.559 63.248 767.219 63.248C766.707 63.248 766.273 63.1567 765.919 62.9741C765.564 62.7915 765.296 62.5552 765.113 62.2651C764.931 61.9751 764.839 61.6689 764.839 61.3467H765.838C765.853 61.6188 765.931 61.8354 766.075 61.9966C766.218 62.1541 766.393 62.2669 766.601 62.335C766.809 62.3994 767.015 62.4316 767.219 62.4316C767.491 62.4316 767.718 62.3958 767.901 62.3242C768.087 62.2526 768.229 62.1541 768.325 62.0288C768.422 61.9035 768.47 61.7603 768.47 61.5991Z" fill="#808191"/>
<rect x="780" y="46.3906" width="25" height="28" rx="6" fill="#F4F4F4"/>
<path d="M792.5 58.1719C791.406 58.1719 790.531 59.0742 790.531 60.1406C790.531 61.2344 791.406 62.1094 792.5 62.1094C793.566 62.1094 794.469 61.2344 794.469 60.1406C794.469 59.0742 793.566 58.1719 792.5 58.1719ZM790.531 55.3281C790.531 56.4219 791.406 57.2969 792.5 57.2969C793.566 57.2969 794.469 56.4219 794.469 55.3281C794.469 54.2617 793.566 53.3594 792.5 53.3594C791.406 53.3594 790.531 54.2617 790.531 55.3281ZM790.531 64.9531C790.531 66.0469 791.406 66.9219 792.5 66.9219C793.566 66.9219 794.469 66.0469 794.469 64.9531C794.469 63.8867 793.566 62.9844 792.5 62.9844C791.406 62.9844 790.531 63.8867 790.531 64.9531Z" fill="black"/>
<g clip-path="url(#clip0_0_127)">
<path d="M84.8594 127.391H802.5" stroke="#E0E0E0"/>
<path d="M84.8594 197.891H802.5" stroke="#E0E0E0"/>
<path d="M84.8594 268.391H802.5" stroke="#E0E0E0"/>
<path d="M84.8594 338.891H802.5" stroke="#E0E0E0"/>
<path d="M84.8594 409.391H802.5" stroke="#E0E0E0"/>
<mask id="mask0_0_127" style="mask-type:luminance" maskUnits="userSpaceOnUse" x="81" y="126" width="725" height="285">
<path d="M805.5 126.391H81.8594V410.391H805.5V126.391Z" fill="white"/>
</mask>
<g mask="url(#mask0_0_127)">
<path d="M98.3151 409.391V264.452C103.13 260.303 107.946 260.303 112.761 264.452V409.391H98.3151Z" fill="#70C4CF" fill-opacity="0.85"/>
</g>
<mask id="mask1_0_127" style="mask-type:luminance" maskUnits="userSpaceOnUse" x="81" y="126" width="725" height="285">
<path d="M805.5 126.391H81.8594V410.391H805.5V126.391Z" fill="white"/>
</mask>
<g mask="url(#mask1_0_127)">
<path d="M158.119 409.391V224.972C162.934 220.823 167.749 220.823 172.564 224.972V409.391H158.119Z" fill="#70C4CF" fill-opacity="0.85"/>
</g>
<mask id="mask2_0_127" style="mask-type:luminance" maskUnits="userSpaceOnUse" x="81" y="126" width="725" height="285">
<path d="M805.5 126.391H81.8594V410.391H805.5V126.391Z" fill="white"/>
</mask>
<g mask="url(#mask2_0_127)">
<path d="M217.922 409.391V230.612C222.737 226.463 227.553 226.463 232.368 230.612V409.391H217.922Z" fill="#70C4CF" fill-opacity="0.85"/>
</g>
<mask id="mask3_0_127" style="mask-type:luminance" maskUnits="userSpaceOnUse" x="81" y="126" width="725" height="285">
<path d="M805.5 126.391H81.8594V410.391H805.5V126.391Z" fill="white"/>
</mask>
<g mask="url(#mask3_0_127)">
<path d="M277.725 409.391V209.815C282.541 205.666 287.356 205.666 292.171 209.815V409.391H277.725Z" fill="#70C4CF" fill-opacity="0.85"/>
</g>
<mask id="mask4_0_127" style="mask-type:luminance" maskUnits="userSpaceOnUse" x="81" y="126" width="725" height="285">
<path d="M805.5 126.391H81.8594V410.391H805.5V126.391Z" fill="white"/>
</mask>
<g mask="url(#mask4_0_127)">
<path d="M337.529 409.391V229.555C342.344 225.406 347.159 225.406 351.975 229.555V409.391H337.529Z" fill="#70C4CF" fill-opacity="0.85"/>
</g>
<mask id="mask5_0_127" style="mask-type:luminance" maskUnits="userSpaceOnUse" x="81" y="126" width="725" height="285">
<path d="M805.5 126.391H81.8594V410.391H805.5V126.391Z" fill="white"/>
</mask>
<g mask="url(#mask5_0_127)">
<path d="M397.332 409.391V230.26C402.147 226.111 406.963 226.111 411.778 230.26V409.391H397.332Z" fill="#70C4CF" fill-opacity="0.85"/>
</g>
<mask id="mask6_0_127" style="mask-type:luminance" maskUnits="userSpaceOnUse" x="81" y="126" width="725" height="285">
<path d="M805.5 126.391H81.8594V410.391H805.5V126.391Z" fill="white"/>
</mask>
<g mask="url(#mask6_0_127)">
<path d="M457.135 409.391V252.467C461.951 248.318 466.766 248.318 471.581 252.467V409.391H457.135Z" fill="#70C4CF" fill-opacity="0.85"/>
</g>
<mask id="mask7_0_127" style="mask-type:luminance" maskUnits="userSpaceOnUse" x="81" y="126" width="725" height="285">
<path d="M805.5 126.391H81.8594V410.391H805.5V126.391Z" fill="white"/>
</mask>
<g mask="url(#mask7_0_127)">
<path d="M516.939 409.391V274.322C521.754 270.173 526.569 270.173 531.385 274.322V409.391H516.939Z" fill="#70C4CF" fill-opacity="0.85"/>
</g>
<mask id="mask8_0_127" style="mask-type:luminance" maskUnits="userSpaceOnUse" x="81" y="126" width="725" height="285">
<path d="M805.5 126.391H81.8594V410.391H805.5V126.391Z" fill="white"/>
</mask>
<g mask="url(#mask8_0_127)">
<path d="M576.742 409.391V320.147C581.557 315.998 586.373 315.998 591.188 320.147V409.391H576.742Z" fill="#70C4CF" fill-opacity="0.85"/>
</g>
<mask id="mask9_0_127" style="mask-type:luminance" maskUnits="userSpaceOnUse" x="81" y="126" width="725" height="285">
<path d="M805.5 126.391H81.8594V410.391H805.5V126.391Z" fill="white"/>
</mask>
<g mask="url(#mask9_0_127)">
<path d="M636.546 409.391V277.495C641.361 273.346 646.176 273.346 650.992 277.495V409.391H636.546Z" fill="#70C4CF" fill-opacity="0.85"/>
</g>
<mask id="mask10_0_127" style="mask-type:luminance" maskUnits="userSpaceOnUse" x="81" y="126" width="725" height="285">
<path d="M805.5 126.391H81.8594V410.391H805.5V126.391Z" fill="white"/>
</mask>
<g mask="url(#mask10_0_127)">
<path d="M696.349 409.391V255.287C701.164 251.138 705.98 251.138 710.795 255.287V409.391H696.349Z" fill="#70C4CF" fill-opacity="0.85"/>
</g>
<mask id="mask11_0_127" style="mask-type:luminance" maskUnits="userSpaceOnUse" x="81" y="126" width="725" height="285">
<path d="M805.5 126.391H81.8594V410.391H805.5V126.391Z" fill="white"/>
</mask>
<g mask="url(#mask11_0_127)">
<path d="M756.152 409.391V218.275C760.968 214.126 765.783 214.126 770.598 218.275V409.391H756.152Z" fill="#70C4CF" fill-opacity="0.85"/>
</g>
<mask id="mask12_0_127" style="mask-type:luminance" maskUnits="userSpaceOnUse" x="81" y="126" width="725" height="285">
<path d="M805.5 126.391H81.8594V410.391H805.5V126.391Z" fill="white"/>
</mask>
<g mask="url(#mask12_0_127)">
<path d="M114.761 409.391V294.062C119.576 289.913 124.392 289.913 129.207 294.062V409.391H114.761Z" fill="#3D5EE1" fill-opacity="0.85"/>
</g>
<mask id="mask13_0_127" style="mask-type:luminance" maskUnits="userSpaceOnUse" x="81" y="126" width="725" height="285">
<path d="M805.5 126.391H81.8594V410.391H805.5V126.391Z" fill="white"/>
</mask>
<g mask="url(#mask13_0_127)">
<path d="M174.564 409.391V196.772C179.38 192.623 184.195 192.623 189.01 196.772V409.391H174.564Z" fill="#3D5EE1" fill-opacity="0.85"/>
</g>
<mask id="mask14_0_127" style="mask-type:luminance" maskUnits="userSpaceOnUse" x="81" y="126" width="725" height="285">
<path d="M805.5 126.391H81.8594V410.391H805.5V126.391Z" fill="white"/>
</mask>
<g mask="url(#mask14_0_127)">
<path d="M234.368 409.391V291.242C239.183 287.093 243.998 287.093 248.814 291.242V409.391H234.368Z" fill="#3D5EE1" fill-opacity="0.85"/>
</g>
<mask id="mask15_0_127" style="mask-type:luminance" maskUnits="userSpaceOnUse" x="81" y="126" width="725" height="285">
<path d="M805.5 126.391H81.8594V410.391H805.5V126.391Z" fill="white"/>
</mask>
<g mask="url(#mask15_0_127)">
<path d="M294.171 409.391V184.435C298.987 180.286 303.802 180.286 308.617 184.435V409.391H294.171Z" fill="#3D5EE1" fill-opacity="0.85"/>
</g>
<mask id="mask16_0_127" style="mask-type:luminance" maskUnits="userSpaceOnUse" x="81" y="126" width="725" height="285">
<path d="M805.5 126.391H81.8594V410.391H805.5V126.391Z" fill="white"/>
</mask>
<g mask="url(#mask16_0_127)">
<path d="M353.975 409.391V290.89C358.79 286.741 363.605 286.741 368.421 290.89V409.391H353.975Z" fill="#3D5EE1" fill-opacity="0.85"/>
</g>
<mask id="mask17_0_127" style="mask-type:luminance" maskUnits="userSpaceOnUse" x="81" y="126" width="725" height="285">
<path d="M805.5 126.391H81.8594V410.391H805.5V126.391Z" fill="white"/>
</mask>
<g mask="url(#mask17_0_127)">
<path d="M413.778 409.391V214.045C418.593 209.896 423.409 209.896 428.224 214.045V409.391H413.778Z" fill="#3D5EE1" fill-opacity="0.85"/>
</g>
<mask id="mask18_0_127" style="mask-type:luminance" maskUnits="userSpaceOnUse" x="81" y="126" width="725" height="285">
<path d="M805.5 126.391H81.8594V410.391H805.5V126.391Z" fill="white"/>
</mask>
<g mask="url(#mask18_0_127)">
<path d="M473.581 409.391V322.262C478.397 318.113 483.212 318.113 488.027 322.262V409.391H473.581Z" fill="#3D5EE1" fill-opacity="0.85"/>
</g>
<mask id="mask19_0_127" style="mask-type:luminance" maskUnits="userSpaceOnUse" x="81" y="126" width="725" height="285">
<path d="M805.5 126.391H81.8594V410.391H805.5V126.391Z" fill="white"/>
</mask>
<g mask="url(#mask19_0_127)">
<path d="M533.385 409.391V291.242C538.2 287.093 543.015 287.093 547.831 291.242V409.391H533.385Z" fill="#3D5EE1" fill-opacity="0.85"/>
</g>
<mask id="mask20_0_127" style="mask-type:luminance" maskUnits="userSpaceOnUse" x="81" y="126" width="725" height="285">
<path d="M805.5 126.391H81.8594V410.391H805.5V126.391Z" fill="white"/>
</mask>
<g mask="url(#mask20_0_127)">
<path d="M593.188 409.391V298.645C598.003 294.496 602.819 294.496 607.634 298.645V409.391H593.188Z" fill="#3D5EE1" fill-opacity="0.85"/>
</g>
<mask id="mask21_0_127" style="mask-type:luminance" maskUnits="userSpaceOnUse" x="81" y="126" width="725" height="285">
<path d="M805.5 126.391H81.8594V410.391H805.5V126.391Z" fill="white"/>
</mask>
<g mask="url(#mask21_0_127)">
<path d="M652.991 409.391V306.752C657.807 302.603 662.622 302.603 667.437 306.752V409.391H652.991Z" fill="#3D5EE1" fill-opacity="0.85"/>
</g>
<mask id="mask22_0_127" style="mask-type:luminance" maskUnits="userSpaceOnUse" x="81" y="126" width="725" height="285">
<path d="M805.5 126.391H81.8594V410.391H805.5V126.391Z" fill="white"/>
</mask>
<g mask="url(#mask22_0_127)">
<path d="M712.795 409.391V252.115C717.61 247.966 722.426 247.966 727.241 252.115V409.391H712.795Z" fill="#3D5EE1" fill-opacity="0.85"/>
</g>
<mask id="mask23_0_127" style="mask-type:luminance" maskUnits="userSpaceOnUse" x="81" y="126" width="725" height="285">
<path d="M805.5 126.391H81.8594V410.391H805.5V126.391Z" fill="white"/>
</mask>
<g mask="url(#mask23_0_127)">
<path d="M772.598 409.391V251.762C777.414 247.613 782.229 247.613 787.044 251.762V409.391H772.598Z" fill="#3D5EE1" fill-opacity="0.85"/>
</g>
<path d="M59.4819 123.322C59.908 123.322 60.241 123.204 60.481 122.967C60.7209 122.727 60.8408 122.443 60.8408 122.113C60.8408 121.827 60.7262 121.564 60.4971 121.324C60.2679 121.084 59.9188 120.964 59.4497 120.964C58.9842 120.964 58.6476 121.084 58.4399 121.324C58.2323 121.564 58.1284 121.845 58.1284 122.167C58.1284 122.529 58.2627 122.812 58.5312 123.016C58.7998 123.22 59.1167 123.322 59.4819 123.322ZM59.541 127.13C59.9886 127.13 60.3592 127.01 60.6528 126.77C60.95 126.527 61.0986 126.165 61.0986 125.685C61.0986 125.187 60.9465 124.81 60.6421 124.552C60.3377 124.294 59.9474 124.165 59.4712 124.165C59.0093 124.165 58.6315 124.298 58.3379 124.563C58.0479 124.824 57.9028 125.187 57.9028 125.653C57.9028 126.054 58.0353 126.401 58.3003 126.695C58.5688 126.985 58.9824 127.13 59.541 127.13ZM58.166 123.692C57.8975 123.578 57.688 123.444 57.5376 123.29C57.2547 123.003 57.1133 122.631 57.1133 122.172C57.1133 121.6 57.321 121.107 57.7363 120.695C58.1517 120.284 58.7407 120.078 59.5034 120.078C60.241 120.078 60.8193 120.273 61.2383 120.663C61.6572 121.05 61.8667 121.503 61.8667 122.022C61.8667 122.502 61.745 122.89 61.5015 123.188C61.3654 123.356 61.1541 123.521 60.8677 123.682C61.1864 123.829 61.437 123.997 61.6196 124.187C61.9598 124.545 62.1299 125.01 62.1299 125.583C62.1299 126.26 61.9025 126.835 61.4478 127.307C60.993 127.776 60.3503 128.011 59.5195 128.011C58.7712 128.011 58.1374 127.809 57.6182 127.404C57.1025 126.996 56.8447 126.405 56.8447 125.631C56.8447 125.177 56.9557 124.785 57.1777 124.455C57.3997 124.122 57.7292 123.868 58.166 123.692ZM65.5889 120.099C66.5843 120.099 67.304 120.509 67.748 121.329C68.0918 121.963 68.2637 122.831 68.2637 123.934C68.2637 124.98 68.1079 125.844 67.7964 126.528C67.3452 127.51 66.6076 128 65.5835 128C64.6597 128 63.9722 127.599 63.521 126.797C63.145 126.127 62.957 125.229 62.957 124.101C62.957 123.227 63.0698 122.477 63.2954 121.85C63.7179 120.683 64.4824 120.099 65.5889 120.099ZM65.5781 127.119C66.0794 127.119 66.4787 126.897 66.7759 126.453C67.0731 126.009 67.2217 125.182 67.2217 123.972C67.2217 123.098 67.1143 122.38 66.8994 121.818C66.6846 121.252 66.2674 120.969 65.6479 120.969C65.0786 120.969 64.6615 121.238 64.3965 121.775C64.1351 122.309 64.0044 123.096 64.0044 124.138C64.0044 124.922 64.0885 125.553 64.2568 126.029C64.5146 126.756 64.9551 127.119 65.5781 127.119ZM71.7119 120.099C72.7074 120.099 73.4271 120.509 73.8711 121.329C74.2148 121.963 74.3867 122.831 74.3867 123.934C74.3867 124.98 74.231 125.844 73.9194 126.528C73.4683 127.51 72.7306 128 71.7065 128C70.7827 128 70.0952 127.599 69.644 126.797C69.2681 126.127 69.0801 125.229 69.0801 124.101C69.0801 123.227 69.1929 122.477 69.4185 121.85C69.841 120.683 70.6055 120.099 71.7119 120.099ZM71.7012 127.119C72.2025 127.119 72.6017 126.897 72.8989 126.453C73.1961 126.009 73.3447 125.182 73.3447 123.972C73.3447 123.098 73.2373 122.38 73.0225 121.818C72.8076 121.252 72.3905 120.969 71.771 120.969C71.2017 120.969 70.7845 121.238 70.5195 121.775C70.2581 122.309 70.1274 123.096 70.1274 124.138C70.1274 124.922 70.2116 125.553 70.3799 126.029C70.6377 126.756 71.0781 127.119 71.7012 127.119Z" fill="#333333"/>
<path d="M59.7075 190.567C60.5669 190.567 61.1649 190.791 61.5015 191.238C61.8416 191.682 62.0117 192.141 62.0117 192.613H61.0557C60.9984 192.309 60.9071 192.071 60.7817 191.899C60.549 191.577 60.1963 191.416 59.7236 191.416C59.1829 191.416 58.7533 191.666 58.4346 192.168C58.1159 192.665 57.9386 193.38 57.9028 194.311C58.1248 193.985 58.4041 193.741 58.7407 193.58C59.0487 193.437 59.3924 193.365 59.772 193.365C60.4165 193.365 60.9787 193.571 61.4585 193.983C61.9383 194.395 62.1782 195.009 62.1782 195.825C62.1782 196.524 61.9508 197.143 61.4961 197.684C61.0413 198.221 60.3932 198.489 59.5518 198.489C58.832 198.489 58.2108 198.217 57.688 197.673C57.1652 197.125 56.9038 196.205 56.9038 194.912C56.9038 193.956 57.0202 193.145 57.2529 192.479C57.7005 191.204 58.5187 190.567 59.7075 190.567ZM59.6377 197.63C60.1462 197.63 60.5257 197.46 60.7764 197.12C61.0306 196.776 61.1577 196.371 61.1577 195.906C61.1577 195.512 61.0449 195.138 60.8193 194.783C60.5938 194.425 60.1838 194.246 59.5894 194.246C59.174 194.246 58.8088 194.384 58.4937 194.66C58.1821 194.935 58.0264 195.351 58.0264 195.906C58.0264 196.393 58.1678 196.803 58.4507 197.136C58.7371 197.465 59.1328 197.63 59.6377 197.63ZM65.5889 190.599C66.5843 190.599 67.304 191.009 67.748 191.829C68.0918 192.463 68.2637 193.331 68.2637 194.434C68.2637 195.48 68.1079 196.344 67.7964 197.028C67.3452 198.01 66.6076 198.5 65.5835 198.5C64.6597 198.5 63.9722 198.099 63.521 197.297C63.145 196.627 62.957 195.729 62.957 194.601C62.957 193.727 63.0698 192.977 63.2954 192.35C63.7179 191.183 64.4824 190.599 65.5889 190.599ZM65.5781 197.619C66.0794 197.619 66.4787 197.397 66.7759 196.953C67.0731 196.509 67.2217 195.682 67.2217 194.472C67.2217 193.598 67.1143 192.88 66.8994 192.318C66.6846 191.752 66.2674 191.469 65.6479 191.469C65.0786 191.469 64.6615 191.738 64.3965 192.275C64.1351 192.809 64.0044 193.596 64.0044 194.638C64.0044 195.422 64.0885 196.053 64.2568 196.529C64.5146 197.256 64.9551 197.619 65.5781 197.619ZM71.7119 190.599C72.7074 190.599 73.4271 191.009 73.8711 191.829C74.2148 192.463 74.3867 193.331 74.3867 194.434C74.3867 195.48 74.231 196.344 73.9194 197.028C73.4683 198.01 72.7306 198.5 71.7065 198.5C70.7827 198.5 70.0952 198.099 69.644 197.297C69.2681 196.627 69.0801 195.729 69.0801 194.601C69.0801 193.727 69.1929 192.977 69.4185 192.35C69.841 191.183 70.6055 190.599 71.7119 190.599ZM71.7012 197.619C72.2025 197.619 72.6017 197.397 72.8989 196.953C73.1961 196.509 73.3447 195.682 73.3447 194.472C73.3447 193.598 73.2373 192.88 73.0225 192.318C72.8076 191.752 72.3905 191.469 71.771 191.469C71.2017 191.469 70.7845 191.738 70.5195 192.275C70.2581 192.809 70.1274 193.596 70.1274 194.638C70.1274 195.422 70.2116 196.053 70.3799 196.529C70.6377 197.256 71.0781 197.619 71.7012 197.619Z" fill="#333333"/>
<path d="M60.1265 266.067V262.582L57.6611 266.067H60.1265ZM60.1426 268.791V266.911H56.7695V265.965L60.293 261.078H61.1094V266.067H62.2427V266.911H61.1094V268.791H60.1426ZM65.5889 261.099C66.5843 261.099 67.304 261.509 67.748 262.329C68.0918 262.963 68.2637 263.831 68.2637 264.934C68.2637 265.98 68.1079 266.844 67.7964 267.528C67.3452 268.51 66.6076 269 65.5835 269C64.6597 269 63.9722 268.599 63.521 267.797C63.145 267.127 62.957 266.229 62.957 265.101C62.957 264.227 63.0698 263.477 63.2954 262.85C63.7179 261.683 64.4824 261.099 65.5889 261.099ZM65.5781 268.119C66.0794 268.119 66.4787 267.897 66.7759 267.453C67.0731 267.009 67.2217 266.182 67.2217 264.972C67.2217 264.098 67.1143 263.38 66.8994 262.818C66.6846 262.252 66.2674 261.969 65.6479 261.969C65.0786 261.969 64.6615 262.238 64.3965 262.775C64.1351 263.309 64.0044 264.096 64.0044 265.138C64.0044 265.922 64.0885 266.553 64.2568 267.029C64.5146 267.756 64.9551 268.119 65.5781 268.119ZM71.7119 261.099C72.7074 261.099 73.4271 261.509 73.8711 262.329C74.2148 262.963 74.3867 263.831 74.3867 264.934C74.3867 265.98 74.231 266.844 73.9194 267.528C73.4683 268.51 72.7306 269 71.7065 269C70.7827 269 70.0952 268.599 69.644 267.797C69.2681 267.127 69.0801 266.229 69.0801 265.101C69.0801 264.227 69.1929 263.477 69.4185 262.85C69.841 261.683 70.6055 261.099 71.7119 261.099ZM71.7012 268.119C72.2025 268.119 72.6017 267.897 72.8989 267.453C73.1961 267.009 73.3447 266.182 73.3447 264.972C73.3447 264.098 73.2373 263.38 73.0225 262.818C72.8076 262.252 72.3905 261.969 71.771 261.969C71.2017 261.969 70.7845 262.238 70.5195 262.775C70.2581 263.309 70.1274 264.096 70.1274 265.138C70.1274 265.922 70.2116 266.553 70.3799 267.029C70.6377 267.756 71.0781 268.119 71.7012 268.119Z" fill="#333333"/>
<path d="M56.834 339.291C56.8698 338.628 57.0059 338.052 57.2422 337.561C57.4821 337.071 57.9476 336.625 58.6387 336.224L59.6699 335.628C60.1318 335.359 60.4559 335.13 60.6421 334.94C60.9357 334.643 61.0825 334.303 61.0825 333.92C61.0825 333.472 60.9482 333.117 60.6797 332.856C60.4111 332.591 60.0531 332.459 59.6055 332.459C58.943 332.459 58.4847 332.709 58.2305 333.211C58.0944 333.479 58.0192 333.851 58.0049 334.328H57.022C57.0327 333.658 57.1562 333.112 57.3926 332.69C57.8115 331.945 58.5509 331.572 59.6108 331.572C60.4917 331.572 61.1344 331.81 61.5391 332.287C61.9473 332.763 62.1514 333.293 62.1514 333.877C62.1514 334.492 61.9347 335.019 61.5015 335.456C61.2508 335.71 60.8014 336.018 60.1533 336.379L59.4175 336.788C59.0666 336.981 58.7909 337.165 58.5903 337.341C58.2323 337.652 58.0067 337.998 57.9136 338.378H62.1138V339.291H56.834ZM65.5889 331.599C66.5843 331.599 67.304 332.009 67.748 332.829C68.0918 333.463 68.2637 334.331 68.2637 335.434C68.2637 336.48 68.1079 337.344 67.7964 338.028C67.3452 339.01 66.6076 339.5 65.5835 339.5C64.6597 339.5 63.9722 339.099 63.521 338.297C63.145 337.627 62.957 336.729 62.957 335.601C62.957 334.727 63.0698 333.977 63.2954 333.35C63.7179 332.183 64.4824 331.599 65.5889 331.599ZM65.5781 338.619C66.0794 338.619 66.4787 338.397 66.7759 337.953C67.0731 337.509 67.2217 336.682 67.2217 335.472C67.2217 334.598 67.1143 333.88 66.8994 333.318C66.6846 332.752 66.2674 332.469 65.6479 332.469C65.0786 332.469 64.6615 332.738 64.3965 333.275C64.1351 333.809 64.0044 334.596 64.0044 335.638C64.0044 336.422 64.0885 337.053 64.2568 337.529C64.5146 338.256 64.9551 338.619 65.5781 338.619ZM71.7119 331.599C72.7074 331.599 73.4271 332.009 73.8711 332.829C74.2148 333.463 74.3867 334.331 74.3867 335.434C74.3867 336.48 74.231 337.344 73.9194 338.028C73.4683 339.01 72.7306 339.5 71.7065 339.5C70.7827 339.5 70.0952 339.099 69.644 338.297C69.2681 337.627 69.0801 336.729 69.0801 335.601C69.0801 334.727 69.1929 333.977 69.4185 333.35C69.841 332.183 70.6055 331.599 71.7119 331.599ZM71.7012 338.619C72.2025 338.619 72.6017 338.397 72.8989 337.953C73.1961 337.509 73.3447 336.682 73.3447 335.472C73.3447 334.598 73.2373 333.88 73.0225 333.318C72.8076 332.752 72.3905 332.469 71.771 332.469C71.2017 332.469 70.7845 332.738 70.5195 333.275C70.2581 333.809 70.1274 334.596 70.1274 335.638C70.1274 336.422 70.2116 337.053 70.3799 337.529C70.6377 338.256 71.0781 338.619 71.7012 338.619Z" fill="#333333"/>
<path d="M71.7119 402.099C72.7074 402.099 73.4271 402.509 73.8711 403.329C74.2148 403.963 74.3867 404.831 74.3867 405.934C74.3867 406.98 74.231 407.845 73.9194 408.528C73.4683 409.51 72.7306 410 71.7065 410C70.7827 410 70.0952 409.599 69.644 408.797C69.2681 408.127 69.0801 407.229 69.0801 406.101C69.0801 405.227 69.1929 404.477 69.4185 403.85C69.841 402.683 70.6055 402.099 71.7119 402.099ZM71.7012 409.119C72.2025 409.119 72.6017 408.897 72.8989 408.453C73.1961 408.009 73.3447 407.182 73.3447 405.972C73.3447 405.098 73.2373 404.38 73.0225 403.818C72.8076 403.252 72.3905 402.969 71.771 402.969C71.2017 402.969 70.7845 403.238 70.5195 403.775C70.2581 404.309 70.1274 405.096 70.1274 406.138C70.1274 406.922 70.2116 407.553 70.3799 408.029C70.6377 408.756 71.0781 409.119 71.7012 409.119Z" fill="#333333"/>
</g>
</g>
<defs>
<filter id="filter0_d_0_127" x="0.5" y="0.390625" width="850.5" height="496" filterUnits="userSpaceOnUse" color-interpolation-filters="sRGB">
<feFlood flood-opacity="0" result="BackgroundImageFix"/>
<feColorMatrix in="SourceAlpha" type="matrix" values="0 0 0 0 0 0 0 0 0 0 0 0 0 0 0 0 0 0 127 0" result="hardAlpha"/>
<feOffset/>
<feGaussianBlur stdDeviation="15.5"/>
<feComposite in2="hardAlpha" operator="out"/>
<feColorMatrix type="matrix" values="0 0 0 0 0.172549 0 0 0 0 0.196078 0 0 0 0 0.247059 0 0 0 0.02 0"/>
<feBlend mode="normal" in2="BackgroundImageFix" result="effect1_dropShadow_0_127"/>
<feBlend mode="normal" in="SourceGraphic" in2="effect1_dropShadow_0_127" result="shape"/>
</filter>
<clipPath id="clip0_0_127">
<rect width="773" height="350" fill="white" transform="translate(39.5 92.3906)"/>
</clipPath>
</defs>
</svg>
