<svg width="851" height="497" viewBox="0 0 851 497" fill="none" xmlns="http://www.w3.org/2000/svg">
<g filter="url(#filter0_d_0_51)">
<rect x="31" y="31.3906" width="788.5" height="434" rx="15" fill="white" shape-rendering="crispEdges"/>
<path d="M31 46.3906C31 38.1064 37.7157 31.3906 46 31.3906H804.5C812.784 31.3906 819.5 38.1064 819.5 46.3906V84.3906H31V46.3906Z" fill="white"/>
<path d="M52.066 65.8098C51.046 65.8098 50.146 65.5637 49.366 65.0717C48.586 64.5677 47.974 63.8597 47.53 62.9478C47.098 62.0237 46.882 60.9257 46.882 59.6537C46.882 58.3817 47.098 57.2957 47.53 56.3957C47.974 55.4957 48.586 54.8057 49.366 54.3257C50.146 53.8457 51.046 53.6057 52.066 53.6057C53.098 53.6057 54.004 53.8457 54.784 54.3257C55.564 54.8057 56.17 55.4957 56.602 56.3957C57.046 57.2957 57.268 58.3817 57.268 59.6537C57.268 60.9257 57.046 62.0237 56.602 62.9478C56.17 63.8597 55.564 64.5677 54.784 65.0717C54.004 65.5637 53.098 65.8098 52.066 65.8098ZM52.066 63.9917C52.99 63.9917 53.728 63.6017 54.28 62.8217C54.832 62.0297 55.108 60.9737 55.108 59.6537C55.108 58.3337 54.832 57.3017 54.28 56.5577C53.728 55.8017 52.99 55.4238 52.066 55.4238C51.142 55.4238 50.404 55.8017 49.852 56.5577C49.3 57.3017 49.024 58.3337 49.024 59.6537C49.024 60.9737 49.3 62.0297 49.852 62.8217C50.404 63.6017 51.142 63.9917 52.066 63.9917ZM61.4229 65.5938L58.3449 56.7557H60.4509L61.8549 61.3457C61.9749 61.7777 62.0949 62.2157 62.2149 62.6597C62.3469 63.1037 62.4729 63.5537 62.5929 64.0097H62.6649C62.7969 63.5537 62.9229 63.1037 63.0429 62.6597C63.1749 62.2157 63.3009 61.7777 63.4209 61.3457L64.8249 56.7557H66.8229L63.8169 65.5938H61.4229ZM72.0295 65.8098C71.2135 65.8098 70.4755 65.6297 69.8155 65.2697C69.1555 64.8977 68.6335 64.3697 68.2495 63.6857C67.8655 62.9897 67.6735 62.1557 67.6735 61.1837C67.6735 60.2237 67.8655 59.3957 68.2495 58.6997C68.6455 58.0037 69.1555 57.4697 69.7795 57.0977C70.4035 56.7257 71.0575 56.5397 71.7415 56.5397C72.5455 56.5397 73.2175 56.7197 73.7575 57.0797C74.2975 57.4277 74.7055 57.9197 74.9815 58.5557C75.2575 59.1797 75.3955 59.9057 75.3955 60.7337C75.3955 61.1657 75.3655 61.5017 75.3055 61.7417H69.6895C69.7855 62.5217 70.0675 63.1277 70.5355 63.5597C71.0035 63.9917 71.5915 64.2077 72.2995 64.2077C72.6835 64.2077 73.0375 64.1537 73.3615 64.0457C73.6975 63.9257 74.0275 63.7637 74.3515 63.5597L75.0535 64.8557C74.6335 65.1317 74.1655 65.3597 73.6495 65.5397C73.1335 65.7198 72.5935 65.8098 72.0295 65.8098ZM69.6715 60.3377H73.5955C73.5955 59.6537 73.4455 59.1197 73.1455 58.7357C72.8455 58.3397 72.3955 58.1417 71.7955 58.1417C71.2795 58.1417 70.8175 58.3337 70.4095 58.7177C70.0135 59.0897 69.7675 59.6297 69.6715 60.3377ZM77.3726 65.5938V56.7557H79.0826L79.2266 58.3217H79.2986C79.6106 57.7457 79.9886 57.3077 80.4326 57.0077C80.8766 56.6957 81.3326 56.5397 81.8006 56.5397C82.2206 56.5397 82.5566 56.5997 82.8086 56.7197L82.4486 58.5197C82.2926 58.4717 82.1486 58.4357 82.0166 58.4117C81.8846 58.3877 81.7226 58.3757 81.5306 58.3757C81.1826 58.3757 80.8166 58.5137 80.4326 58.7897C80.0486 59.0537 79.7186 59.5217 79.4426 60.1937V65.5938H77.3726ZM86.3487 65.5938L83.2707 56.7557H85.3767L86.7807 61.3457C86.9007 61.7777 87.0207 62.2157 87.1407 62.6597C87.2727 63.1037 87.3987 63.5537 87.5187 64.0097H87.5907C87.7227 63.5537 87.8487 63.1037 87.9687 62.6597C88.1007 62.2157 88.2267 61.7777 88.3467 61.3457L89.7507 56.7557H91.7487L88.7427 65.5938H86.3487ZM93.2808 65.5938V56.7557H95.3508V65.5938H93.2808ZM94.3248 55.2077C93.9528 55.2077 93.6528 55.0997 93.4248 54.8837C93.1968 54.6677 93.0828 54.3797 93.0828 54.0197C93.0828 53.6717 93.1968 53.3897 93.4248 53.1737C93.6528 52.9577 93.9528 52.8497 94.3248 52.8497C94.6968 52.8497 94.9968 52.9577 95.2248 53.1737C95.4528 53.3897 95.5668 53.6717 95.5668 54.0197C95.5668 54.3797 95.4528 54.6677 95.2248 54.8837C94.9968 55.0997 94.6968 55.2077 94.3248 55.2077ZM101.772 65.8098C100.956 65.8098 100.218 65.6297 99.5577 65.2697C98.8977 64.8977 98.3757 64.3697 97.9917 63.6857C97.6077 62.9897 97.4157 62.1557 97.4157 61.1837C97.4157 60.2237 97.6077 59.3957 97.9917 58.6997C98.3877 58.0037 98.8977 57.4697 99.5217 57.0977C100.146 56.7257 100.8 56.5397 101.484 56.5397C102.288 56.5397 102.96 56.7197 103.5 57.0797C104.04 57.4277 104.448 57.9197 104.724 58.5557C105 59.1797 105.138 59.9057 105.138 60.7337C105.138 61.1657 105.108 61.5017 105.048 61.7417H99.4317C99.5277 62.5217 99.8097 63.1277 100.278 63.5597C100.746 63.9917 101.334 64.2077 102.042 64.2077C102.426 64.2077 102.78 64.1537 103.104 64.0457C103.44 63.9257 103.77 63.7637 104.094 63.5597L104.796 64.8557C104.376 65.1317 103.908 65.3597 103.392 65.5397C102.876 65.7198 102.336 65.8098 101.772 65.8098ZM99.4137 60.3377H103.338C103.338 59.6537 103.188 59.1197 102.888 58.7357C102.588 58.3397 102.138 58.1417 101.538 58.1417C101.022 58.1417 100.56 58.3337 100.152 58.7177C99.7557 59.0897 99.5097 59.6297 99.4137 60.3377ZM108.573 65.5938L106.233 56.7557H108.321L109.383 61.3457C109.479 61.7657 109.557 62.1857 109.617 62.6057C109.689 63.0257 109.767 63.4517 109.851 63.8837H109.923C110.007 63.4517 110.091 63.0257 110.175 62.6057C110.271 62.1737 110.373 61.7537 110.481 61.3457L111.633 56.7557H113.523L114.693 61.3457C114.801 61.7657 114.903 62.1857 114.999 62.6057C115.095 63.0257 115.191 63.4517 115.287 63.8837H115.359C115.443 63.4517 115.521 63.0257 115.593 62.6057C115.665 62.1857 115.743 61.7657 115.827 61.3457L116.889 56.7557H118.833L116.583 65.5938H114.117L113.091 61.4717C112.995 61.0517 112.905 60.6377 112.821 60.2297C112.737 59.8097 112.647 59.3657 112.551 58.8977H112.479C112.395 59.3657 112.311 59.8097 112.227 60.2297C112.143 60.6497 112.053 61.0697 111.957 61.4897L110.949 65.5938H108.573Z" fill="black"/>
<rect x="654.391" y="55.8906" width="9" height="9" rx="4.5" fill="#3D5EE1"/>
<path d="M672.188 55.3203V63.1406H671.167V55.3203H672.188ZM674.702 55.3203V56.1689H668.659V55.3203H674.702ZM677.586 63.248C677.181 63.248 676.814 63.18 676.485 63.0439C676.159 62.9043 675.878 62.7091 675.642 62.4585C675.409 62.2078 675.23 61.9106 675.104 61.5669C674.979 61.2231 674.917 60.8472 674.917 60.439V60.2134C674.917 59.7407 674.986 59.32 675.126 58.9512C675.266 58.5788 675.455 58.2637 675.695 58.0059C675.935 57.748 676.207 57.5529 676.512 57.4204C676.816 57.2879 677.131 57.2217 677.457 57.2217C677.872 57.2217 678.23 57.2933 678.531 57.4365C678.836 57.5798 679.084 57.7803 679.278 58.0381C679.471 58.2923 679.614 58.5931 679.708 58.9404C679.801 59.2842 679.847 59.6602 679.847 60.0684V60.5142H675.507V59.7031H678.854V59.6279C678.839 59.3701 678.785 59.1195 678.692 58.876C678.603 58.6325 678.46 58.432 678.263 58.2744C678.066 58.1169 677.797 58.0381 677.457 58.0381C677.231 58.0381 677.024 58.0864 676.834 58.1831C676.644 58.2762 676.481 58.4159 676.345 58.6021C676.209 58.7882 676.104 59.0156 676.028 59.2842C675.953 59.5527 675.916 59.8625 675.916 60.2134V60.439C675.916 60.7147 675.953 60.9743 676.028 61.2178C676.107 61.4577 676.22 61.6689 676.367 61.8516C676.517 62.0342 676.698 62.1774 676.909 62.2812C677.124 62.3851 677.368 62.437 677.64 62.437C677.991 62.437 678.288 62.3654 678.531 62.2222C678.775 62.0789 678.988 61.8874 679.17 61.6475L679.772 62.1255C679.647 62.3153 679.487 62.4961 679.294 62.668C679.101 62.8398 678.862 62.9795 678.58 63.0869C678.3 63.1943 677.969 63.248 677.586 63.248ZM684.434 62.147V59.1553C684.434 58.9261 684.388 58.7274 684.294 58.5591C684.205 58.3872 684.069 58.2547 683.886 58.1616C683.704 58.0685 683.478 58.022 683.209 58.022C682.959 58.022 682.739 58.0649 682.549 58.1509C682.363 58.2368 682.216 58.3496 682.108 58.4893C682.005 58.6289 681.953 58.7793 681.953 58.9404H680.959C680.959 58.7327 681.013 58.5269 681.12 58.3228C681.228 58.1187 681.382 57.9342 681.582 57.7695C681.786 57.6012 682.03 57.4688 682.312 57.3721C682.599 57.2718 682.918 57.2217 683.269 57.2217C683.691 57.2217 684.063 57.2933 684.386 57.4365C684.712 57.5798 684.966 57.7964 685.148 58.0864C685.335 58.3729 685.428 58.7327 685.428 59.166V61.873C685.428 62.0664 685.444 62.2723 685.476 62.4907C685.512 62.7091 685.564 62.8971 685.632 63.0547V63.1406H684.595C684.545 63.026 684.506 62.8739 684.477 62.6841C684.448 62.4907 684.434 62.3117 684.434 62.147ZM684.606 59.6172L684.617 60.3154H683.612C683.329 60.3154 683.077 60.3387 682.855 60.3853C682.633 60.4282 682.447 60.4945 682.296 60.584C682.146 60.6735 682.031 60.7863 681.953 60.9224C681.874 61.0549 681.834 61.2106 681.834 61.3896C681.834 61.5723 681.876 61.7388 681.958 61.8892C682.04 62.0396 682.164 62.1595 682.329 62.249C682.497 62.335 682.703 62.3779 682.946 62.3779C683.251 62.3779 683.519 62.3135 683.752 62.1846C683.985 62.0557 684.169 61.8981 684.305 61.7119C684.445 61.5257 684.52 61.3449 684.531 61.1694L684.955 61.6475C684.93 61.7979 684.862 61.9644 684.751 62.147C684.64 62.3296 684.491 62.505 684.305 62.6733C684.123 62.8381 683.904 62.9759 683.65 63.0869C683.399 63.1943 683.116 63.248 682.801 63.248C682.407 63.248 682.062 63.1711 681.765 63.0171C681.471 62.8631 681.242 62.6572 681.077 62.3994C680.916 62.138 680.835 61.8462 680.835 61.5239C680.835 61.2124 680.896 60.9385 681.018 60.7021C681.14 60.4622 681.315 60.2635 681.544 60.106C681.774 59.9448 682.049 59.8231 682.372 59.7407C682.694 59.6584 683.054 59.6172 683.451 59.6172H684.606ZM689.316 62.4316C689.553 62.4316 689.771 62.3833 689.972 62.2866C690.172 62.1899 690.337 62.0575 690.466 61.8892C690.595 61.7173 690.668 61.5221 690.686 61.3037H691.631C691.613 61.6475 691.497 61.9679 691.282 62.2651C691.071 62.5588 690.793 62.7969 690.45 62.9795C690.106 63.1585 689.728 63.248 689.316 63.248C688.88 63.248 688.498 63.1711 688.172 63.0171C687.85 62.8631 687.582 62.6519 687.367 62.3833C687.155 62.1147 686.996 61.8068 686.889 61.4595C686.785 61.1086 686.733 60.738 686.733 60.3477V60.1221C686.733 59.7318 686.785 59.363 686.889 59.0156C686.996 58.6647 687.155 58.355 687.367 58.0864C687.582 57.8179 687.85 57.6066 688.172 57.4526C688.498 57.2987 688.88 57.2217 689.316 57.2217C689.771 57.2217 690.169 57.3148 690.509 57.501C690.849 57.6836 691.116 57.9342 691.309 58.2529C691.506 58.568 691.613 58.9261 691.631 59.3271H690.686C690.668 59.0872 690.6 58.8706 690.482 58.6772C690.367 58.4839 690.21 58.3299 690.009 58.2153C689.812 58.0972 689.581 58.0381 689.316 58.0381C689.012 58.0381 688.756 58.099 688.548 58.2207C688.344 58.3389 688.181 58.5 688.06 58.7041C687.941 58.9046 687.855 59.1284 687.802 59.3755C687.752 59.619 687.727 59.8678 687.727 60.1221V60.3477C687.727 60.6019 687.752 60.8525 687.802 61.0996C687.852 61.3467 687.936 61.5705 688.054 61.771C688.176 61.9715 688.339 62.1326 688.543 62.2544C688.751 62.3726 689.008 62.4316 689.316 62.4316ZM693.742 54.8906V63.1406H692.749V54.8906H693.742ZM693.506 60.0146L693.092 59.9985C693.096 59.6011 693.155 59.234 693.27 58.8975C693.384 58.5573 693.545 58.2619 693.753 58.0112C693.961 57.7606 694.208 57.5672 694.494 57.4312C694.784 57.2915 695.105 57.2217 695.456 57.2217C695.742 57.2217 696 57.2611 696.229 57.3398C696.458 57.415 696.653 57.5368 696.814 57.7051C696.979 57.8734 697.104 58.0918 697.19 58.3604C697.276 58.6253 697.319 58.9494 697.319 59.3325V63.1406H696.32V59.3218C696.32 59.0174 696.276 58.7739 696.186 58.5913C696.097 58.4051 695.966 58.2708 695.794 58.1885C695.622 58.1025 695.411 58.0596 695.16 58.0596C694.913 58.0596 694.688 58.1115 694.483 58.2153C694.283 58.3192 694.109 58.4624 693.962 58.645C693.819 58.8276 693.706 59.0371 693.624 59.2734C693.545 59.5062 693.506 59.7533 693.506 60.0146ZM701.219 63.248C700.814 63.248 700.447 63.18 700.118 63.0439C699.792 62.9043 699.511 62.7091 699.274 62.4585C699.042 62.2078 698.863 61.9106 698.737 61.5669C698.612 61.2231 698.549 60.8472 698.549 60.439V60.2134C698.549 59.7407 698.619 59.32 698.759 58.9512C698.898 58.5788 699.088 58.2637 699.328 58.0059C699.568 57.748 699.84 57.5529 700.145 57.4204C700.449 57.2879 700.764 57.2217 701.09 57.2217C701.505 57.2217 701.863 57.2933 702.164 57.4365C702.468 57.5798 702.717 57.7803 702.911 58.0381C703.104 58.2923 703.247 58.5931 703.34 58.9404C703.433 59.2842 703.48 59.6602 703.48 60.0684V60.5142H699.14V59.7031H702.486V59.6279C702.472 59.3701 702.418 59.1195 702.325 58.876C702.236 58.6325 702.092 58.432 701.896 58.2744C701.699 58.1169 701.43 58.0381 701.09 58.0381C700.864 58.0381 700.657 58.0864 700.467 58.1831C700.277 58.2762 700.114 58.4159 699.978 58.6021C699.842 58.7882 699.736 59.0156 699.661 59.2842C699.586 59.5527 699.548 59.8625 699.548 60.2134V60.439C699.548 60.7147 699.586 60.9743 699.661 61.2178C699.74 61.4577 699.853 61.6689 700 61.8516C700.15 62.0342 700.331 62.1774 700.542 62.2812C700.757 62.3851 701 62.437 701.272 62.437C701.623 62.437 701.921 62.3654 702.164 62.2222C702.408 62.0789 702.621 61.8874 702.803 61.6475L703.405 62.1255C703.279 62.3153 703.12 62.4961 702.927 62.668C702.733 62.8398 702.495 62.9795 702.212 63.0869C701.933 63.1943 701.602 63.248 701.219 63.248ZM705.634 58.2422V63.1406H704.64V57.3291H705.607L705.634 58.2422ZM707.449 57.2969L707.444 58.2207C707.361 58.2028 707.283 58.1921 707.208 58.1885C707.136 58.1813 707.054 58.1777 706.96 58.1777C706.731 58.1777 706.529 58.2135 706.354 58.2852C706.178 58.3568 706.029 58.457 705.908 58.5859C705.786 58.7148 705.689 58.8688 705.618 59.0479C705.55 59.2233 705.505 59.4167 705.483 59.6279L705.204 59.7891C705.204 59.4382 705.238 59.1087 705.306 58.8008C705.378 58.4928 705.487 58.2207 705.634 57.9844C705.781 57.7445 705.967 57.5583 706.192 57.4258C706.422 57.2897 706.694 57.2217 707.009 57.2217C707.08 57.2217 707.163 57.2306 707.256 57.2485C707.349 57.2629 707.413 57.279 707.449 57.2969Z" fill="#808191"/>
<rect x="717.609" y="55.8906" width="9" height="9" rx="4.5" fill="#70C4CF"/>
<path d="M736.685 61.1641C736.685 60.9814 736.656 60.8203 736.599 60.6807C736.545 60.5374 736.449 60.4085 736.309 60.2939C736.173 60.1794 735.983 60.0701 735.74 59.9663C735.5 59.8625 735.195 59.7568 734.827 59.6494C734.44 59.5348 734.091 59.4077 733.779 59.2681C733.468 59.1248 733.201 58.9619 732.979 58.7793C732.757 58.5967 732.587 58.3872 732.469 58.1509C732.351 57.9146 732.292 57.6442 732.292 57.3398C732.292 57.0355 732.354 56.7544 732.479 56.4966C732.605 56.2388 732.784 56.015 733.017 55.8252C733.253 55.6318 733.534 55.4814 733.86 55.374C734.186 55.2666 734.549 55.2129 734.95 55.2129C735.537 55.2129 736.035 55.3257 736.443 55.5513C736.855 55.7733 737.168 56.0651 737.383 56.4268C737.598 56.7848 737.706 57.168 737.706 57.5762H736.674C736.674 57.2826 736.612 57.0229 736.486 56.7974C736.361 56.5682 736.171 56.3892 735.917 56.2603C735.663 56.1278 735.34 56.0615 734.95 56.0615C734.581 56.0615 734.277 56.117 734.037 56.228C733.797 56.339 733.618 56.4894 733.5 56.6792C733.385 56.869 733.328 57.0856 733.328 57.3291C733.328 57.4938 733.362 57.6442 733.43 57.7803C733.502 57.9128 733.611 58.0363 733.758 58.1509C733.908 58.2655 734.098 58.3711 734.327 58.4678C734.56 58.5645 734.837 58.6576 735.16 58.7471C735.604 58.8724 735.987 59.012 736.309 59.166C736.631 59.32 736.896 59.4937 737.104 59.687C737.315 59.8768 737.471 60.0934 737.571 60.3369C737.675 60.5768 737.727 60.849 737.727 61.1533C737.727 61.472 737.663 61.7603 737.534 62.0181C737.405 62.2759 737.22 62.4961 736.98 62.6787C736.741 62.8613 736.452 63.0028 736.116 63.103C735.783 63.1997 735.41 63.248 734.999 63.248C734.637 63.248 734.281 63.1979 733.93 63.0977C733.582 62.9974 733.265 62.847 732.979 62.6465C732.696 62.446 732.469 62.1989 732.297 61.9053C732.129 61.6081 732.044 61.2643 732.044 60.874H733.076C733.076 61.1426 733.128 61.3735 733.231 61.5669C733.335 61.7567 733.477 61.9142 733.656 62.0396C733.838 62.1649 734.044 62.258 734.273 62.3188C734.506 62.3761 734.748 62.4048 734.999 62.4048C735.36 62.4048 735.666 62.3547 735.917 62.2544C736.168 62.1541 736.357 62.0109 736.486 61.8247C736.619 61.6385 736.685 61.4183 736.685 61.1641ZM741.331 57.3291V58.0918H738.189V57.3291H741.331ZM739.252 55.9165H740.246V61.7012C740.246 61.8981 740.277 62.0467 740.337 62.147C740.398 62.2472 740.477 62.3135 740.574 62.3457C740.67 62.3779 740.774 62.394 740.885 62.394C740.968 62.394 741.054 62.3869 741.143 62.3726C741.236 62.3547 741.306 62.3403 741.353 62.3296L741.358 63.1406C741.279 63.1657 741.175 63.189 741.046 63.2104C740.921 63.2355 740.769 63.248 740.59 63.248C740.346 63.248 740.123 63.1997 739.918 63.103C739.714 63.0063 739.551 62.8452 739.43 62.6196C739.312 62.3905 739.252 62.0825 739.252 61.6958V55.9165ZM746.052 61.7979V57.3291H747.051V63.1406H746.101L746.052 61.7979ZM746.24 60.5732L746.654 60.5625C746.654 60.9492 746.613 61.3073 746.53 61.6367C746.451 61.9626 746.323 62.2454 746.144 62.4854C745.965 62.7253 745.73 62.9132 745.44 63.0493C745.15 63.1818 744.797 63.248 744.382 63.248C744.099 63.248 743.839 63.2069 743.603 63.1245C743.37 63.0422 743.17 62.915 743.001 62.7432C742.833 62.5713 742.702 62.3475 742.609 62.0718C742.52 61.7961 742.475 61.4648 742.475 61.0781V57.3291H743.469V61.0889C743.469 61.3503 743.497 61.5669 743.555 61.7388C743.616 61.9071 743.696 62.0413 743.796 62.1416C743.9 62.2383 744.015 62.3063 744.14 62.3457C744.269 62.3851 744.402 62.4048 744.538 62.4048C744.96 62.4048 745.295 62.3242 745.542 62.1631C745.789 61.9984 745.966 61.7782 746.074 61.5024C746.185 61.2231 746.24 60.9134 746.24 60.5732ZM752.229 62.0127V54.8906H753.228V63.1406H752.315L752.229 62.0127ZM748.319 60.2993V60.1865C748.319 59.7425 748.373 59.3397 748.48 58.978C748.591 58.6128 748.747 58.2995 748.947 58.0381C749.151 57.7767 749.393 57.5762 749.672 57.4365C749.955 57.2933 750.27 57.2217 750.618 57.2217C750.983 57.2217 751.302 57.2861 751.574 57.415C751.849 57.5404 752.082 57.7248 752.272 57.9683C752.465 58.2082 752.618 58.4982 752.729 58.8384C752.84 59.1785 752.917 59.5635 752.959 59.9932V60.4873C752.92 60.9134 752.843 61.2965 752.729 61.6367C752.618 61.9769 752.465 62.2669 752.272 62.5068C752.082 62.7467 751.849 62.9312 751.574 63.0601C751.298 63.1854 750.976 63.248 750.607 63.248C750.267 63.248 749.955 63.1746 749.672 63.0278C749.393 62.881 749.151 62.6751 748.947 62.4102C748.747 62.1452 748.591 61.8337 748.48 61.4756C748.373 61.1139 748.319 60.7218 748.319 60.2993ZM749.318 60.1865V60.2993C749.318 60.5894 749.347 60.8615 749.404 61.1157C749.465 61.37 749.558 61.5938 749.683 61.7871C749.808 61.9805 749.968 62.1326 750.161 62.2437C750.354 62.3511 750.585 62.4048 750.854 62.4048C751.183 62.4048 751.454 62.335 751.665 62.1953C751.88 62.0557 752.052 61.8713 752.181 61.6421C752.31 61.4129 752.41 61.1641 752.481 60.8955V59.6011C752.438 59.4041 752.376 59.2144 752.293 59.0317C752.215 58.8455 752.111 58.6808 751.982 58.5376C751.857 58.3908 751.701 58.2744 751.515 58.1885C751.332 58.1025 751.115 58.0596 750.865 58.0596C750.593 58.0596 750.358 58.1169 750.161 58.2314C749.968 58.3424 749.808 58.4964 749.683 58.6934C749.558 58.8867 749.465 59.1123 749.404 59.3701C749.347 59.6243 749.318 59.8965 749.318 60.1865ZM757.187 63.248C756.782 63.248 756.415 63.18 756.085 63.0439C755.76 62.9043 755.479 62.7091 755.242 62.4585C755.009 62.2078 754.83 61.9106 754.705 61.5669C754.58 61.2231 754.517 60.8472 754.517 60.439V60.2134C754.517 59.7407 754.587 59.32 754.727 58.9512C754.866 58.5788 755.056 58.2637 755.296 58.0059C755.536 57.748 755.808 57.5529 756.112 57.4204C756.417 57.2879 756.732 57.2217 757.058 57.2217C757.473 57.2217 757.831 57.2933 758.132 57.4365C758.436 57.5798 758.685 57.7803 758.878 58.0381C759.072 58.2923 759.215 58.5931 759.308 58.9404C759.401 59.2842 759.448 59.6602 759.448 60.0684V60.5142H755.108V59.7031H758.454V59.6279C758.44 59.3701 758.386 59.1195 758.293 58.876C758.203 58.6325 758.06 58.432 757.863 58.2744C757.666 58.1169 757.398 58.0381 757.058 58.0381C756.832 58.0381 756.624 58.0864 756.435 58.1831C756.245 58.2762 756.082 58.4159 755.946 58.6021C755.81 58.7882 755.704 59.0156 755.629 59.2842C755.554 59.5527 755.516 59.8625 755.516 60.2134V60.439C755.516 60.7147 755.554 60.9743 755.629 61.2178C755.708 61.4577 755.82 61.6689 755.967 61.8516C756.118 62.0342 756.299 62.1774 756.51 62.2812C756.725 62.3851 756.968 62.437 757.24 62.437C757.591 62.437 757.888 62.3654 758.132 62.2222C758.375 62.0789 758.588 61.8874 758.771 61.6475L759.373 62.1255C759.247 62.3153 759.088 62.4961 758.895 62.668C758.701 62.8398 758.463 62.9795 758.18 63.0869C757.901 63.1943 757.57 63.248 757.187 63.248ZM761.602 58.5698V63.1406H760.608V57.3291H761.548L761.602 58.5698ZM761.365 60.0146L760.952 59.9985C760.955 59.6011 761.014 59.234 761.129 58.8975C761.243 58.5573 761.405 58.2619 761.612 58.0112C761.82 57.7606 762.067 57.5672 762.354 57.4312C762.644 57.2915 762.964 57.2217 763.315 57.2217C763.601 57.2217 763.859 57.2611 764.088 57.3398C764.318 57.415 764.513 57.5368 764.674 57.7051C764.839 57.8734 764.964 58.0918 765.05 58.3604C765.136 58.6253 765.179 58.9494 765.179 59.3325V63.1406H764.18V59.3218C764.18 59.0174 764.135 58.7739 764.045 58.5913C763.956 58.4051 763.825 58.2708 763.653 58.1885C763.481 58.1025 763.27 58.0596 763.02 58.0596C762.772 58.0596 762.547 58.1115 762.343 58.2153C762.142 58.3192 761.969 58.4624 761.822 58.645C761.679 58.8276 761.566 59.0371 761.483 59.2734C761.405 59.5062 761.365 59.7533 761.365 60.0146ZM769.121 57.3291V58.0918H765.979V57.3291H769.121ZM767.042 55.9165H768.036V61.7012C768.036 61.8981 768.067 62.0467 768.127 62.147C768.188 62.2472 768.267 62.3135 768.364 62.3457C768.46 62.3779 768.564 62.394 768.675 62.394C768.758 62.394 768.844 62.3869 768.933 62.3726C769.026 62.3547 769.096 62.3403 769.143 62.3296L769.148 63.1406C769.069 63.1657 768.965 63.189 768.836 63.2104C768.711 63.2355 768.559 63.248 768.38 63.248C768.136 63.248 767.913 63.1997 767.708 63.103C767.504 63.0063 767.341 62.8452 767.22 62.6196C767.102 62.3905 767.042 62.0825 767.042 61.6958V55.9165Z" fill="#808191"/>
<rect x="779.5" y="46.3906" width="25" height="28" rx="6" fill="#F4F4F4"/>
<path d="M792 58.1719C790.906 58.1719 790.031 59.0742 790.031 60.1406C790.031 61.2344 790.906 62.1094 792 62.1094C793.066 62.1094 793.969 61.2344 793.969 60.1406C793.969 59.0742 793.066 58.1719 792 58.1719ZM790.031 55.3281C790.031 56.4219 790.906 57.2969 792 57.2969C793.066 57.2969 793.969 56.4219 793.969 55.3281C793.969 54.2617 793.066 53.3594 792 53.3594C790.906 53.3594 790.031 54.2617 790.031 55.3281ZM790.031 64.9531C790.031 66.0469 790.906 66.9219 792 66.9219C793.066 66.9219 793.969 66.0469 793.969 64.9531C793.969 63.8867 793.066 62.9844 792 62.9844C790.906 62.9844 790.031 63.8867 790.031 64.9531Z" fill="black"/>
<g clip-path="url(#clip0_0_51)">
<path d="M73.709 408.172C73.709 408.899 73.6016 409.463 73.3867 409.866C72.9883 410.6 72.2305 410.967 71.1133 410.967C70.4688 410.967 69.918 410.793 69.4609 410.446C69.0039 410.094 68.7754 409.471 68.7754 408.577V407.961H69.8711V408.577C69.8711 409.045 69.9746 409.399 70.1816 409.637C70.3926 409.871 70.7188 409.989 71.1602 409.989C71.7812 409.989 72.1875 409.776 72.3789 409.35C72.4961 409.088 72.5547 408.594 72.5547 407.868V402.131H73.709V408.172ZM76.1523 409.069C76.1523 409.373 76.2637 409.614 76.4863 409.789C76.709 409.965 76.9727 410.053 77.2773 410.053C77.6484 410.053 78.0078 409.967 78.3555 409.795C78.9414 409.51 79.2344 409.043 79.2344 408.395V407.545C79.1055 407.627 78.9395 407.696 78.7363 407.75C78.5332 407.805 78.334 407.844 78.1387 407.868L77.5 407.95C77.1172 408 76.8301 408.08 76.6387 408.19C76.3145 408.373 76.1523 408.666 76.1523 409.069ZM78.707 406.936C78.9492 406.905 79.1113 406.803 79.1934 406.631C79.2402 406.537 79.2637 406.403 79.2637 406.227C79.2637 405.868 79.1348 405.608 78.877 405.448C78.623 405.284 78.2578 405.202 77.7812 405.202C77.2305 405.202 76.8398 405.35 76.6094 405.647C76.4805 405.811 76.3965 406.055 76.3574 406.379H75.373C75.3926 405.606 75.6426 405.069 76.123 404.768C76.6074 404.463 77.168 404.311 77.8047 404.311C78.543 404.311 79.1426 404.452 79.6035 404.733C80.0605 405.014 80.2891 405.452 80.2891 406.045V409.661C80.2891 409.77 80.3105 409.858 80.3535 409.924C80.4004 409.991 80.4961 410.024 80.6406 410.024C80.6875 410.024 80.7402 410.022 80.7988 410.018C80.8574 410.01 80.9199 410 80.9863 409.989V410.768C80.8223 410.815 80.6973 410.844 80.6113 410.856C80.5254 410.868 80.4082 410.873 80.2598 410.873C79.8965 410.873 79.6328 410.745 79.4688 410.487C79.3828 410.35 79.3223 410.157 79.2871 409.907C79.0723 410.188 78.7637 410.432 78.3613 410.639C77.959 410.846 77.5156 410.95 77.0312 410.95C76.4492 410.95 75.9727 410.774 75.6016 410.422C75.2344 410.067 75.0508 409.623 75.0508 409.092C75.0508 408.51 75.2324 408.059 75.5957 407.739C75.959 407.418 76.4355 407.221 77.0254 407.147L78.707 406.936ZM82.0234 404.463H83.0254V405.354C83.3223 404.987 83.6367 404.723 83.9688 404.563C84.3008 404.403 84.6699 404.323 85.0762 404.323C85.9668 404.323 86.5684 404.633 86.8809 405.254C87.0527 405.594 87.1387 406.08 87.1387 406.713V410.739H86.0664V406.784C86.0664 406.401 86.0098 406.092 85.8965 405.858C85.709 405.467 85.3691 405.272 84.877 405.272C84.627 405.272 84.4219 405.297 84.2617 405.348C83.9727 405.434 83.7188 405.606 83.5 405.864C83.3242 406.071 83.209 406.286 83.1543 406.508C83.1035 406.727 83.0781 407.041 83.0781 407.452V410.739H82.0234V404.463Z" fill="#333333"/>
<path d="M190.053 402.131H196.023V403.186H191.219V405.799H195.443V406.825H191.219V410.739H190.053V402.131ZM199.75 404.323C200.195 404.323 200.627 404.428 201.045 404.639C201.463 404.846 201.781 405.116 202 405.448C202.211 405.764 202.352 406.133 202.422 406.555C202.484 406.844 202.516 407.305 202.516 407.938H197.916C197.936 408.575 198.086 409.086 198.367 409.473C198.648 409.856 199.084 410.047 199.674 410.047C200.225 410.047 200.664 409.866 200.992 409.502C201.18 409.291 201.312 409.047 201.391 408.77H202.428C202.4 409 202.309 409.258 202.152 409.543C202 409.825 201.828 410.055 201.637 410.235C201.316 410.547 200.92 410.758 200.447 410.868C200.193 410.93 199.906 410.961 199.586 410.961C198.805 410.961 198.143 410.678 197.6 410.112C197.057 409.541 196.785 408.745 196.785 407.721C196.785 406.713 197.059 405.895 197.605 405.266C198.152 404.637 198.867 404.323 199.75 404.323ZM201.432 407.1C201.389 406.643 201.289 406.278 201.133 406.004C200.844 405.496 200.361 405.243 199.686 405.243C199.201 405.243 198.795 405.418 198.467 405.77C198.139 406.118 197.965 406.561 197.945 407.1H201.432ZM203.734 402.102H204.76V405.225C204.99 404.924 205.266 404.696 205.586 404.539C205.906 404.379 206.254 404.299 206.629 404.299C207.41 404.299 208.043 404.569 208.527 405.108C209.016 405.643 209.26 406.434 209.26 407.481C209.26 408.473 209.02 409.297 208.539 409.953C208.059 410.61 207.393 410.938 206.541 410.938C206.064 410.938 205.662 410.823 205.334 410.592C205.139 410.455 204.93 410.237 204.707 409.936V410.739H203.734V402.102ZM206.477 410.006C207.047 410.006 207.473 409.78 207.754 409.327C208.039 408.873 208.182 408.276 208.182 407.534C208.182 406.873 208.039 406.327 207.754 405.893C207.473 405.459 207.057 405.243 206.506 405.243C206.025 405.243 205.604 405.42 205.24 405.776C204.881 406.131 204.701 406.717 204.701 407.534C204.701 408.123 204.775 408.602 204.924 408.969C205.201 409.661 205.719 410.006 206.477 410.006Z" fill="#333333"/>
<path d="M310.549 402.131H312.219L314.691 409.409L317.146 402.131H318.799V410.739H317.691V405.659C317.691 405.483 317.695 405.192 317.703 404.786C317.711 404.379 317.715 403.944 317.715 403.479L315.26 410.739H314.105L311.633 403.479V403.743C311.633 403.953 311.637 404.276 311.645 404.709C311.656 405.139 311.662 405.455 311.662 405.659V410.739H310.549V402.131ZM321.242 409.069C321.242 409.373 321.354 409.614 321.576 409.789C321.799 409.965 322.062 410.053 322.367 410.053C322.738 410.053 323.098 409.967 323.445 409.795C324.031 409.51 324.324 409.043 324.324 408.395V407.545C324.195 407.627 324.029 407.696 323.826 407.75C323.623 407.805 323.424 407.844 323.229 407.868L322.59 407.95C322.207 408 321.92 408.08 321.729 408.19C321.404 408.373 321.242 408.666 321.242 409.069ZM323.797 406.936C324.039 406.905 324.201 406.803 324.283 406.631C324.33 406.537 324.354 406.403 324.354 406.227C324.354 405.868 324.225 405.608 323.967 405.448C323.713 405.284 323.348 405.202 322.871 405.202C322.32 405.202 321.93 405.35 321.699 405.647C321.57 405.811 321.486 406.055 321.447 406.379H320.463C320.482 405.606 320.732 405.069 321.213 404.768C321.697 404.463 322.258 404.311 322.895 404.311C323.633 404.311 324.232 404.452 324.693 404.733C325.15 405.014 325.379 405.452 325.379 406.045V409.661C325.379 409.77 325.4 409.858 325.443 409.924C325.49 409.991 325.586 410.024 325.73 410.024C325.777 410.024 325.83 410.022 325.889 410.018C325.947 410.01 326.01 410 326.076 409.989V410.768C325.912 410.815 325.787 410.844 325.701 410.856C325.615 410.868 325.498 410.873 325.35 410.873C324.986 410.873 324.723 410.745 324.559 410.487C324.473 410.35 324.412 410.157 324.377 409.907C324.162 410.188 323.854 410.432 323.451 410.639C323.049 410.846 322.605 410.95 322.121 410.95C321.539 410.95 321.062 410.774 320.691 410.422C320.324 410.067 320.141 409.623 320.141 409.092C320.141 408.51 320.322 408.059 320.686 407.739C321.049 407.418 321.525 407.221 322.115 407.147L323.797 406.936ZM327.143 404.463H328.145V405.547C328.227 405.336 328.428 405.08 328.748 404.78C329.068 404.475 329.438 404.323 329.855 404.323C329.875 404.323 329.908 404.325 329.955 404.328C330.002 404.332 330.082 404.34 330.195 404.352V405.465C330.133 405.453 330.074 405.446 330.02 405.442C329.969 405.438 329.912 405.436 329.85 405.436C329.318 405.436 328.91 405.608 328.625 405.952C328.34 406.291 328.197 406.684 328.197 407.129V410.739H327.143V404.463Z" fill="#333333"/>
<path d="M436.617 407.211L435.311 403.409L433.922 407.211H436.617ZM434.701 402.131H436.02L439.143 410.739H437.865L436.992 408.161H433.588L432.656 410.739H431.461L434.701 402.131ZM442.711 410.03C443.203 410.03 443.611 409.825 443.936 409.414C444.264 409 444.428 408.383 444.428 407.563C444.428 407.063 444.355 406.633 444.211 406.274C443.938 405.582 443.438 405.237 442.711 405.237C441.98 405.237 441.48 405.602 441.211 406.332C441.066 406.723 440.994 407.219 440.994 407.821C440.994 408.305 441.066 408.717 441.211 409.057C441.484 409.705 441.984 410.03 442.711 410.03ZM439.98 404.493H441.006V405.325C441.217 405.039 441.447 404.819 441.697 404.662C442.053 404.428 442.471 404.311 442.951 404.311C443.662 404.311 444.266 404.584 444.762 405.131C445.258 405.674 445.506 406.452 445.506 407.463C445.506 408.83 445.148 409.807 444.434 410.393C443.98 410.764 443.453 410.95 442.852 410.95C442.379 410.95 441.982 410.846 441.662 410.639C441.475 410.522 441.266 410.321 441.035 410.036V413.241H439.98V404.493ZM446.771 404.463H447.773V405.547C447.855 405.336 448.057 405.08 448.377 404.78C448.697 404.475 449.066 404.323 449.484 404.323C449.504 404.323 449.537 404.325 449.584 404.328C449.631 404.332 449.711 404.34 449.824 404.352V405.465C449.762 405.453 449.703 405.446 449.648 405.442C449.598 405.438 449.541 405.436 449.479 405.436C448.947 405.436 448.539 405.608 448.254 405.952C447.969 406.291 447.826 406.684 447.826 407.129V410.739H446.771V404.463Z" fill="#333333"/>
<path d="M550.797 402.131H552.467L554.939 409.409L557.395 402.131H559.047V410.739H557.939V405.659C557.939 405.483 557.943 405.192 557.951 404.786C557.959 404.379 557.963 403.944 557.963 403.479L555.508 410.739H554.354L551.881 403.479V403.743C551.881 403.953 551.885 404.276 551.893 404.709C551.904 405.139 551.91 405.455 551.91 405.659V410.739H550.797V402.131ZM561.49 409.069C561.49 409.373 561.602 409.614 561.824 409.789C562.047 409.965 562.311 410.053 562.615 410.053C562.986 410.053 563.346 409.967 563.693 409.795C564.279 409.51 564.572 409.043 564.572 408.395V407.545C564.443 407.627 564.277 407.696 564.074 407.75C563.871 407.805 563.672 407.844 563.477 407.868L562.838 407.95C562.455 408 562.168 408.08 561.977 408.19C561.652 408.373 561.49 408.666 561.49 409.069ZM564.045 406.936C564.287 406.905 564.449 406.803 564.531 406.631C564.578 406.537 564.602 406.403 564.602 406.227C564.602 405.868 564.473 405.608 564.215 405.448C563.961 405.284 563.596 405.202 563.119 405.202C562.568 405.202 562.178 405.35 561.947 405.647C561.818 405.811 561.734 406.055 561.695 406.379H560.711C560.73 405.606 560.98 405.069 561.461 404.768C561.945 404.463 562.506 404.311 563.143 404.311C563.881 404.311 564.48 404.452 564.941 404.733C565.398 405.014 565.627 405.452 565.627 406.045V409.661C565.627 409.77 565.648 409.858 565.691 409.924C565.738 409.991 565.834 410.024 565.979 410.024C566.025 410.024 566.078 410.022 566.137 410.018C566.195 410.01 566.258 410 566.324 409.989V410.768C566.16 410.815 566.035 410.844 565.949 410.856C565.863 410.868 565.746 410.873 565.598 410.873C565.234 410.873 564.971 410.745 564.807 410.487C564.721 410.35 564.66 410.157 564.625 409.907C564.41 410.188 564.102 410.432 563.699 410.639C563.297 410.846 562.854 410.95 562.369 410.95C561.787 410.95 561.311 410.774 560.939 410.422C560.572 410.067 560.389 409.623 560.389 409.092C560.389 408.51 560.57 408.059 560.934 407.739C561.297 407.418 561.773 407.221 562.363 407.147L564.045 406.936ZM571.281 404.463H572.447C572.299 404.866 571.969 405.784 571.457 407.217C571.074 408.295 570.754 409.174 570.496 409.854C569.887 411.455 569.457 412.432 569.207 412.784C568.957 413.135 568.527 413.311 567.918 413.311C567.77 413.311 567.654 413.305 567.572 413.293C567.494 413.282 567.396 413.26 567.279 413.229V412.268C567.463 412.319 567.596 412.35 567.678 412.362C567.76 412.373 567.832 412.379 567.895 412.379C568.09 412.379 568.232 412.346 568.322 412.28C568.416 412.217 568.494 412.139 568.557 412.045C568.576 412.014 568.646 411.854 568.768 411.565C568.889 411.276 568.977 411.061 569.031 410.92L566.711 404.463H567.906L569.588 409.573L571.281 404.463Z" fill="#333333"/>
<path d="M676.834 408.172C676.834 408.899 676.727 409.463 676.512 409.866C676.113 410.6 675.355 410.967 674.238 410.967C673.594 410.967 673.043 410.793 672.586 410.446C672.129 410.094 671.9 409.471 671.9 408.577V407.961H672.996V408.577C672.996 409.045 673.1 409.399 673.307 409.637C673.518 409.871 673.844 409.989 674.285 409.989C674.906 409.989 675.312 409.776 675.504 409.35C675.621 409.088 675.68 408.594 675.68 407.868V402.131H676.834V408.172ZM679.523 404.463V408.629C679.523 408.95 679.574 409.211 679.676 409.414C679.863 409.789 680.213 409.977 680.725 409.977C681.459 409.977 681.959 409.649 682.225 408.993C682.369 408.641 682.441 408.159 682.441 407.545V404.463H683.496V410.739H682.5L682.512 409.813C682.375 410.051 682.205 410.252 682.002 410.416C681.6 410.745 681.111 410.909 680.537 410.909C679.643 410.909 679.033 410.61 678.709 410.012C678.533 409.692 678.445 409.264 678.445 408.729V404.463H679.523ZM685.148 404.463H686.15V405.354C686.447 404.987 686.762 404.723 687.094 404.563C687.426 404.403 687.795 404.323 688.201 404.323C689.092 404.323 689.693 404.633 690.006 405.254C690.178 405.594 690.264 406.08 690.264 406.713V410.739H689.191V406.784C689.191 406.401 689.135 406.092 689.021 405.858C688.834 405.467 688.494 405.272 688.002 405.272C687.752 405.272 687.547 405.297 687.387 405.348C687.098 405.434 686.844 405.606 686.625 405.864C686.449 406.071 686.334 406.286 686.279 406.508C686.229 406.727 686.203 407.041 686.203 407.452V410.739H685.148V404.463Z" fill="#333333"/>
<path d="M799.463 408.172C799.463 408.899 799.355 409.463 799.141 409.866C798.742 410.6 797.984 410.967 796.867 410.967C796.223 410.967 795.672 410.793 795.215 410.446C794.758 410.094 794.529 409.471 794.529 408.577V407.961H795.625V408.577C795.625 409.045 795.729 409.399 795.936 409.637C796.146 409.871 796.473 409.989 796.914 409.989C797.535 409.989 797.941 409.776 798.133 409.35C798.25 409.088 798.309 408.594 798.309 407.868V402.131H799.463V408.172ZM802.152 404.463V408.629C802.152 408.95 802.203 409.211 802.305 409.414C802.492 409.789 802.842 409.977 803.354 409.977C804.088 409.977 804.588 409.649 804.854 408.993C804.998 408.641 805.07 408.159 805.07 407.545V404.463H806.125V410.739H805.129L805.141 409.813C805.004 410.051 804.834 410.252 804.631 410.416C804.229 410.745 803.74 410.909 803.166 410.909C802.271 410.909 801.662 410.61 801.338 410.012C801.162 409.692 801.074 409.264 801.074 408.729V404.463H802.152ZM807.807 402.131H808.861V410.739H807.807V402.131Z" fill="#333333"/>
<path d="M78.25 387.739H802" stroke="#E0E0E0"/>
<path d="M78.25 122.391H802" stroke="#E0E0E0"/>
<path d="M78.25 166.449H802" stroke="#E0E0E0"/>
<path d="M78.25 210.507H802" stroke="#E0E0E0"/>
<path d="M78.25 254.565H802" stroke="#E0E0E0"/>
<path d="M78.25 298.623H802" stroke="#E0E0E0"/>
<path d="M78.25 342.681H802" stroke="#E0E0E0"/>
<path d="M78.25 386.739H802" stroke="#E0E0E0"/>
<path d="M78.25 387.739V393.739" stroke="#E0E0E0"/>
<path d="M198.875 387.739V393.739" stroke="#E0E0E0"/>
<path d="M319.5 387.739V393.739" stroke="#E0E0E0"/>
<path d="M440.125 387.739V393.739" stroke="#E0E0E0"/>
<path d="M560.75 387.739V393.739" stroke="#E0E0E0"/>
<path d="M681.375 387.739V393.739" stroke="#E0E0E0"/>
<path d="M802 387.739V393.739" stroke="#E0E0E0"/>
<mask id="mask0_0_51" style="mask-type:luminance" maskUnits="userSpaceOnUse" x="73" y="119" width="734" height="271">
<path d="M806.5 119.891H73.75V389.239H806.5V119.891Z" fill="white"/>
</mask>
<g mask="url(#mask0_0_51)">
<path d="M78.25 276.594C120.469 276.594 156.656 210.507 198.875 210.507C241.094 210.507 277.281 144.42 319.5 144.42C361.719 144.42 397.906 250.159 440.125 250.159C482.344 250.159 518.531 289.811 560.75 289.811C602.969 289.811 639.156 289.811 681.375 289.811C723.594 289.811 759.781 342.681 802 342.681" stroke="#3D5EE1" stroke-opacity="0.85" stroke-width="5"/>
</g>
<mask id="mask1_0_51" style="mask-type:luminance" maskUnits="userSpaceOnUse" x="73" y="119" width="734" height="271">
<path d="M806.5 119.891H73.75V389.239H806.5V119.891Z" fill="white"/>
</mask>
<g mask="url(#mask1_0_51)">
<path d="M78.25 369.115C120.469 369.115 156.656 263.376 198.875 263.376C241.094 263.376 277.281 228.13 319.5 228.13C361.719 228.13 397.906 333.869 440.125 333.869C482.344 333.869 518.531 325.057 560.75 325.057C602.969 325.057 639.156 245.753 681.375 245.753C723.594 245.753 759.781 364.71 802 364.71" stroke="#70C4CF" stroke-opacity="0.85" stroke-width="5"/>
</g>
<path d="M58.9956 118.522C59.4217 118.522 59.7547 118.404 59.9946 118.167C60.2345 117.927 60.3545 117.643 60.3545 117.313C60.3545 117.027 60.2399 116.764 60.0107 116.524C59.7816 116.284 59.4325 116.164 58.9634 116.164C58.4979 116.164 58.1613 116.284 57.9536 116.524C57.7459 116.764 57.6421 117.045 57.6421 117.367C57.6421 117.729 57.7764 118.012 58.0449 118.216C58.3135 118.42 58.6304 118.522 58.9956 118.522ZM59.0547 122.33C59.5023 122.33 59.8729 122.21 60.1665 121.97C60.4637 121.727 60.6123 121.365 60.6123 120.885C60.6123 120.387 60.4601 120.01 60.1558 119.752C59.8514 119.494 59.4611 119.365 58.9849 119.365C58.5229 119.365 58.1452 119.498 57.8516 119.763C57.5615 120.024 57.4165 120.387 57.4165 120.853C57.4165 121.254 57.549 121.601 57.814 121.895C58.0825 122.185 58.4961 122.33 59.0547 122.33ZM57.6797 118.892C57.4111 118.778 57.2017 118.644 57.0513 118.49C56.7684 118.203 56.627 117.831 56.627 117.372C56.627 116.8 56.8346 116.307 57.25 115.895C57.6654 115.484 58.2544 115.278 59.0171 115.278C59.7547 115.278 60.333 115.473 60.752 115.863C61.1709 116.25 61.3804 116.703 61.3804 117.222C61.3804 117.702 61.2586 118.09 61.0151 118.388C60.8791 118.556 60.6678 118.721 60.3813 118.882C60.7 119.029 60.9507 119.197 61.1333 119.387C61.4735 119.745 61.6436 120.21 61.6436 120.783C61.6436 121.46 61.4162 122.035 60.9614 122.507C60.5067 122.976 59.8639 123.211 59.0332 123.211C58.2848 123.211 57.651 123.009 57.1318 122.604C56.6162 122.196 56.3584 121.605 56.3584 120.831C56.3584 120.377 56.4694 119.985 56.6914 119.655C56.9134 119.322 57.2428 119.068 57.6797 118.892ZM65.1025 115.299C66.098 115.299 66.8177 115.709 67.2617 116.529C67.6055 117.163 67.7773 118.031 67.7773 119.134C67.7773 120.18 67.6216 121.045 67.3101 121.728C66.8589 122.71 66.1213 123.2 65.0972 123.2C64.1733 123.2 63.4858 122.799 63.0347 121.997C62.6587 121.327 62.4707 120.429 62.4707 119.301C62.4707 118.427 62.5835 117.677 62.8091 117.05C63.2316 115.883 63.9961 115.299 65.1025 115.299ZM65.0918 122.319C65.5931 122.319 65.9924 122.097 66.2896 121.653C66.5868 121.209 66.7354 120.382 66.7354 119.172C66.7354 118.298 66.6279 117.58 66.4131 117.018C66.1982 116.452 65.7811 116.169 65.1616 116.169C64.5923 116.169 64.1751 116.438 63.9102 116.975C63.6488 117.509 63.5181 118.296 63.5181 119.338C63.5181 120.122 63.6022 120.753 63.7705 121.229C64.0283 121.956 64.4688 122.319 65.0918 122.319Z" fill="#333333"/>
<path d="M61.7563 159.486V160.329C61.5093 160.569 61.1799 160.986 60.7681 161.581C60.3599 162.175 59.9982 162.816 59.6831 163.504C59.3716 164.173 59.1353 164.784 58.9741 165.335C58.8703 165.69 58.736 166.261 58.5713 167.049H57.5024C57.7459 165.581 58.283 164.12 59.1138 162.666C59.6043 161.814 60.12 161.078 60.6606 160.458H56.4067V159.486H61.7563ZM65.1025 159.357C66.098 159.357 66.8177 159.767 67.2617 160.587C67.6055 161.221 67.7773 162.089 67.7773 163.192C67.7773 164.238 67.6216 165.103 67.3101 165.786C66.8589 166.768 66.1213 167.258 65.0972 167.258C64.1733 167.258 63.4858 166.857 63.0347 166.055C62.6587 165.385 62.4707 164.487 62.4707 163.359C62.4707 162.485 62.5835 161.735 62.8091 161.108C63.2316 159.941 63.9961 159.357 65.1025 159.357ZM65.0918 166.377C65.5931 166.377 65.9924 166.155 66.2896 165.711C66.5868 165.267 66.7354 164.44 66.7354 163.23C66.7354 162.356 66.6279 161.638 66.4131 161.076C66.1982 160.51 65.7811 160.227 65.1616 160.227C64.5923 160.227 64.1751 160.496 63.9102 161.033C63.6488 161.567 63.5181 162.354 63.5181 163.396C63.5181 164.18 63.6022 164.811 63.7705 165.287C64.0283 166.014 64.4688 166.377 65.0918 166.377Z" fill="#333333"/>
<path d="M59.2212 203.383C60.0806 203.383 60.6785 203.607 61.0151 204.054C61.3553 204.498 61.5254 204.957 61.5254 205.429H60.5693C60.512 205.125 60.4207 204.887 60.2954 204.715C60.0627 204.393 59.71 204.232 59.2373 204.232C58.6966 204.232 58.2669 204.482 57.9482 204.984C57.6296 205.481 57.4523 206.196 57.4165 207.127C57.6385 206.801 57.9178 206.557 58.2544 206.396C58.5623 206.253 58.9061 206.181 59.2856 206.181C59.9302 206.181 60.4924 206.387 60.9722 206.799C61.452 207.211 61.6919 207.825 61.6919 208.641C61.6919 209.34 61.4645 209.959 61.0098 210.5C60.555 211.037 59.9069 211.305 59.0654 211.305C58.3457 211.305 57.7244 211.033 57.2017 210.489C56.6789 209.941 56.4175 209.021 56.4175 207.728C56.4175 206.772 56.5339 205.961 56.7666 205.295C57.2142 204.02 58.0324 203.383 59.2212 203.383ZM59.1514 210.446C59.6598 210.446 60.0394 210.276 60.29 209.936C60.5443 209.592 60.6714 209.187 60.6714 208.722C60.6714 208.328 60.5586 207.954 60.333 207.599C60.1074 207.241 59.6974 207.062 59.103 207.062C58.6877 207.062 58.3224 207.2 58.0073 207.476C57.6958 207.751 57.54 208.167 57.54 208.722C57.54 209.209 57.6815 209.619 57.9644 209.952C58.2508 210.281 58.6465 210.446 59.1514 210.446ZM65.1025 203.415C66.098 203.415 66.8177 203.825 67.2617 204.645C67.6055 205.279 67.7773 206.147 67.7773 207.25C67.7773 208.296 67.6216 209.161 67.3101 209.844C66.8589 210.826 66.1213 211.316 65.0972 211.316C64.1733 211.316 63.4858 210.915 63.0347 210.113C62.6587 209.443 62.4707 208.545 62.4707 207.417C62.4707 206.543 62.5835 205.793 62.8091 205.166C63.2316 203.999 63.9961 203.415 65.1025 203.415ZM65.0918 210.435C65.5931 210.435 65.9924 210.213 66.2896 209.769C66.5868 209.325 66.7354 208.498 66.7354 207.288C66.7354 206.414 66.6279 205.696 66.4131 205.134C66.1982 204.568 65.7811 204.285 65.1616 204.285C64.5923 204.285 64.1751 204.554 63.9102 205.091C63.6488 205.625 63.5181 206.412 63.5181 207.454C63.5181 208.238 63.6022 208.869 63.7705 209.345C64.0283 210.072 64.4688 210.435 65.0918 210.435Z" fill="#333333"/>
<path d="M57.3628 253.204C57.4272 253.756 57.6833 254.137 58.1309 254.348C58.36 254.456 58.625 254.509 58.9258 254.509C59.4987 254.509 59.923 254.327 60.1987 253.961C60.4744 253.596 60.6123 253.192 60.6123 252.748C60.6123 252.211 60.4476 251.795 60.1182 251.502C59.7923 251.208 59.4002 251.061 58.9419 251.061C58.6089 251.061 58.3224 251.126 58.0825 251.254C57.8462 251.383 57.6439 251.562 57.4756 251.792L56.6377 251.743L57.2231 247.602H61.2192V248.537H57.9482L57.6206 250.674C57.7996 250.538 57.9697 250.436 58.1309 250.368C58.4173 250.25 58.7485 250.191 59.1245 250.191C59.8299 250.191 60.4279 250.418 60.9185 250.873C61.409 251.328 61.6543 251.904 61.6543 252.603C61.6543 253.329 61.4287 253.97 60.9775 254.525C60.5299 255.08 59.8138 255.358 58.8291 255.358C58.2025 255.358 57.6475 255.183 57.1641 254.832C56.6842 254.477 56.4157 253.935 56.3584 253.204H57.3628ZM65.1025 247.473C66.098 247.473 66.8177 247.883 67.2617 248.703C67.6055 249.337 67.7773 250.205 67.7773 251.308C67.7773 252.354 67.6216 253.218 67.3101 253.902C66.8589 254.884 66.1213 255.374 65.0972 255.374C64.1733 255.374 63.4858 254.973 63.0347 254.171C62.6587 253.501 62.4707 252.603 62.4707 251.475C62.4707 250.601 62.5835 249.851 62.8091 249.224C63.2316 248.057 63.9961 247.473 65.1025 247.473ZM65.0918 254.493C65.5931 254.493 65.9924 254.271 66.2896 253.827C66.5868 253.383 66.7354 252.556 66.7354 251.346C66.7354 250.472 66.6279 249.754 66.4131 249.192C66.1982 248.626 65.7811 248.343 65.1616 248.343C64.5923 248.343 64.1751 248.612 63.9102 249.149C63.6488 249.683 63.5181 250.47 63.5181 251.512C63.5181 252.296 63.6022 252.927 63.7705 253.403C64.0283 254.13 64.4688 254.493 65.0918 254.493Z" fill="#333333"/>
<path d="M59.6401 296.499V293.014L57.1748 296.499H59.6401ZM59.6562 299.223V297.343H56.2832V296.397L59.8066 291.51H60.623V296.499H61.7563V297.343H60.623V299.223H59.6562ZM65.1025 291.531C66.098 291.531 66.8177 291.941 67.2617 292.761C67.6055 293.395 67.7773 294.263 67.7773 295.366C67.7773 296.412 67.6216 297.276 67.3101 297.96C66.8589 298.942 66.1213 299.432 65.0972 299.432C64.1733 299.432 63.4858 299.031 63.0347 298.229C62.6587 297.559 62.4707 296.661 62.4707 295.533C62.4707 294.659 62.5835 293.909 62.8091 293.282C63.2316 292.115 63.9961 291.531 65.1025 291.531ZM65.0918 298.551C65.5931 298.551 65.9924 298.329 66.2896 297.885C66.5868 297.441 66.7354 296.614 66.7354 295.404C66.7354 294.53 66.6279 293.812 66.4131 293.25C66.1982 292.684 65.7811 292.401 65.1616 292.401C64.5923 292.401 64.1751 292.67 63.9102 293.207C63.6488 293.741 63.5181 294.528 63.5181 295.57C63.5181 296.354 63.6022 296.985 63.7705 297.461C64.0283 298.188 64.4688 298.551 65.0918 298.551Z" fill="#333333"/>
<path d="M58.8613 343.49C57.9518 343.49 57.2912 343.241 56.8794 342.744C56.4712 342.242 56.2671 341.634 56.2671 340.917H57.2769C57.3198 341.415 57.4129 341.777 57.5562 342.002C57.8068 342.407 58.2598 342.609 58.915 342.609C59.4235 342.609 59.8317 342.473 60.1396 342.201C60.4476 341.929 60.6016 341.578 60.6016 341.148C60.6016 340.618 60.4386 340.248 60.1128 340.036C59.7905 339.825 59.3411 339.72 58.7646 339.72C58.7002 339.72 58.634 339.721 58.5659 339.725C58.5015 339.725 58.4352 339.727 58.3672 339.73V338.876C58.4674 338.887 58.5516 338.894 58.6196 338.898C58.6877 338.901 58.7611 338.903 58.8398 338.903C59.2015 338.903 59.4987 338.846 59.7314 338.731C60.1396 338.531 60.3438 338.173 60.3438 337.657C60.3438 337.274 60.2077 336.979 59.9355 336.771C59.6634 336.563 59.3465 336.459 58.9849 336.459C58.3403 336.459 57.8945 336.674 57.6475 337.104C57.5114 337.34 57.4344 337.677 57.4165 338.114H56.4604C56.4604 337.541 56.575 337.054 56.8042 336.653C57.1981 335.937 57.891 335.578 58.8828 335.578C59.667 335.578 60.2739 335.754 60.7036 336.105C61.1333 336.452 61.3481 336.957 61.3481 337.62C61.3481 338.092 61.221 338.475 60.9668 338.769C60.8092 338.952 60.6051 339.095 60.3545 339.199C60.7591 339.31 61.0742 339.524 61.2998 339.843C61.529 340.158 61.6436 340.545 61.6436 341.003C61.6436 341.737 61.4019 342.335 60.9185 342.797C60.4351 343.259 59.7493 343.49 58.8613 343.49ZM65.1025 335.589C66.098 335.589 66.8177 335.999 67.2617 336.819C67.6055 337.453 67.7773 338.321 67.7773 339.424C67.7773 340.47 67.6216 341.335 67.3101 342.018C66.8589 343 66.1213 343.49 65.0972 343.49C64.1733 343.49 63.4858 343.089 63.0347 342.287C62.6587 341.617 62.4707 340.719 62.4707 339.591C62.4707 338.717 62.5835 337.967 62.8091 337.34C63.2316 336.173 63.9961 335.589 65.1025 335.589ZM65.0918 342.609C65.5931 342.609 65.9924 342.387 66.2896 341.943C66.5868 341.499 66.7354 340.672 66.7354 339.462C66.7354 338.588 66.6279 337.87 66.4131 337.308C66.1982 336.742 65.7811 336.459 65.1616 336.459C64.5923 336.459 64.1751 336.728 63.9102 337.265C63.6488 337.799 63.5181 338.586 63.5181 339.628C63.5181 340.412 63.6022 341.043 63.7705 341.519C64.0283 342.246 64.4688 342.609 65.0918 342.609Z" fill="#333333"/>
<path d="M56.3477 387.339C56.3835 386.676 56.5195 386.1 56.7559 385.609C56.9958 385.119 57.4613 384.673 58.1523 384.272L59.1836 383.676C59.6455 383.407 59.9696 383.178 60.1558 382.988C60.4494 382.691 60.5962 382.351 60.5962 381.968C60.5962 381.52 60.4619 381.165 60.1934 380.904C59.9248 380.639 59.5667 380.507 59.1191 380.507C58.4567 380.507 57.9984 380.757 57.7441 381.259C57.6081 381.527 57.5329 381.899 57.5186 382.376H56.5356C56.5464 381.706 56.6699 381.16 56.9062 380.738C57.3252 379.993 58.0646 379.62 59.1245 379.62C60.0054 379.62 60.6481 379.858 61.0527 380.335C61.4609 380.811 61.665 381.341 61.665 381.925C61.665 382.54 61.4484 383.067 61.0151 383.504C60.7645 383.758 60.3151 384.066 59.667 384.427L58.9312 384.836C58.5802 385.029 58.3045 385.213 58.104 385.389C57.7459 385.7 57.5203 386.046 57.4272 386.426H61.6274V387.339H56.3477ZM65.1025 379.647C66.098 379.647 66.8177 380.057 67.2617 380.877C67.6055 381.511 67.7773 382.379 67.7773 383.482C67.7773 384.528 67.6216 385.392 67.3101 386.076C66.8589 387.058 66.1213 387.548 65.0972 387.548C64.1733 387.548 63.4858 387.147 63.0347 386.345C62.6587 385.675 62.4707 384.777 62.4707 383.649C62.4707 382.775 62.5835 382.025 62.8091 381.398C63.2316 380.231 63.9961 379.647 65.1025 379.647ZM65.0918 386.667C65.5931 386.667 65.9924 386.445 66.2896 386.001C66.5868 385.557 66.7354 384.73 66.7354 383.52C66.7354 382.646 66.6279 381.928 66.4131 381.366C66.1982 380.8 65.7811 380.517 65.1616 380.517C64.5923 380.517 64.1751 380.786 63.9102 381.323C63.6488 381.857 63.5181 382.644 63.5181 383.686C63.5181 384.47 63.6022 385.101 63.7705 385.577C64.0283 386.304 64.4688 386.667 65.0918 386.667Z" fill="#333333"/>
</g>
</g>
<defs>
<filter id="filter0_d_0_51" x="0" y="0.390625" width="850.5" height="496" filterUnits="userSpaceOnUse" color-interpolation-filters="sRGB">
<feFlood flood-opacity="0" result="BackgroundImageFix"/>
<feColorMatrix in="SourceAlpha" type="matrix" values="0 0 0 0 0 0 0 0 0 0 0 0 0 0 0 0 0 0 127 0" result="hardAlpha"/>
<feOffset/>
<feGaussianBlur stdDeviation="15.5"/>
<feComposite in2="hardAlpha" operator="out"/>
<feColorMatrix type="matrix" values="0 0 0 0 0.172549 0 0 0 0 0.196078 0 0 0 0 0.247059 0 0 0 0.02 0"/>
<feBlend mode="normal" in2="BackgroundImageFix" result="effect1_dropShadow_0_51"/>
<feBlend mode="normal" in="SourceGraphic" in2="effect1_dropShadow_0_51" result="shape"/>
</filter>
<clipPath id="clip0_0_51">
<rect width="773" height="350" fill="white" transform="translate(39 92.3906)"/>
</clipPath>
</defs>
</svg>
