<svg width="74" height="49" viewBox="0 0 74 49" fill="none" xmlns="http://www.w3.org/2000/svg">
<path d="M27.463 7.10922C27.378 7.06384 27.3034 7.00216 27.2438 6.92792C27.1842 6.85368 27.1409 6.76846 27.1164 6.67745C26.5835 4.62587 26.5905 2.58113 27.1376 0.543254C27.1678 0.426585 27.2295 0.319576 27.3164 0.232961C27.4033 0.146346 27.5125 0.0831704 27.6328 0.0497764C28.1894 -0.0964389 28.661 0.0794688 29.0478 0.577515C29.1524 0.710128 29.2028 0.873733 29.1892 1.03673L28.9558 4.49791C28.8898 5.45288 29.4369 5.94636 30.5971 5.97834L37.1339 6.14969C38.3225 6.18167 38.8578 6.82365 38.7398 8.07562L38.4569 11.1804C38.441 11.3478 38.4892 11.515 38.5922 11.6502C38.6953 11.7854 38.846 11.8792 39.0158 11.9138C40.2538 12.1605 45.6305 12.1879 44.1943 14.4565C44.121 14.5722 44.0141 14.6644 43.887 14.7217C43.76 14.779 43.6184 14.7988 43.4798 14.7787L38.4923 14.0042C37.0491 13.7803 36.3274 13.0652 36.3274 11.859L36.3345 8.82268C36.3345 8.64027 36.261 8.46523 36.1298 8.33561C35.9987 8.20598 35.8206 8.13226 35.6341 8.13046C33.5401 8.11675 31.4767 8.05964 29.4439 7.95911C28.7365 7.92484 28.0927 7.45192 27.463 7.10922Z" fill="#4995D2"/>
<path d="M63.437 8.98718C61.6306 8.99632 59.8242 9.02374 58.0179 9.06943C54.8839 9.14482 53.3699 8.24697 54.0844 4.92286C54.1058 4.82064 54.1031 4.71504 54.0764 4.61399C54.0497 4.51294 53.9998 4.41904 53.9304 4.3393C53.861 4.25955 53.774 4.19604 53.6757 4.15348C53.5774 4.11092 53.4705 4.09043 53.3628 4.09353L46.6208 4.34712C46.4827 4.35602 46.3469 4.32495 46.2317 4.25804C41.2795 1.46167 52.4644 2.07166 52.7969 2.07166C55.6126 2.04425 56.9213 3.61377 56.1997 6.22509C56.1711 6.32805 56.1676 6.43607 56.1896 6.54055C56.2116 6.64503 56.2585 6.74308 56.3265 6.82693C56.3945 6.91078 56.4818 6.97811 56.5814 7.02355C56.6809 7.06898 56.7901 7.09127 56.9001 7.08866L64.4981 6.92417C65.8282 6.89219 66.4908 7.44734 66.4861 8.58965V11.7904C66.4859 11.9675 66.5566 12.1378 66.6832 12.2656C66.8098 12.3934 66.9826 12.4687 67.1653 12.4758C69.7262 12.5649 74.544 11.3929 73.9497 15.6286C73.7941 16.7434 73.4545 20.4194 72.931 26.6564C72.9223 26.7533 72.8925 26.8473 72.8438 26.9323C72.795 27.0174 72.7283 27.0915 72.648 27.1499C71.2826 28.13 70.6601 26.8826 70.7733 25.738C71.1081 22.2791 71.4453 18.8064 71.7849 15.3201C71.7946 15.2203 71.7816 15.1196 71.7467 15.0251C71.7118 14.9307 71.656 14.8449 71.5831 14.7736C71.5102 14.7024 71.4221 14.6475 71.325 14.6128C71.2278 14.5782 71.124 14.5646 71.0209 14.5731C68.4599 14.7787 64.4062 14.9226 64.2081 11.4683C64.1704 10.8651 64.1491 10.2643 64.1444 9.66571C64.1444 9.57602 64.1261 9.48724 64.0904 9.40446C64.0548 9.32169 64.0026 9.24658 63.9368 9.18348C63.871 9.12039 63.793 9.07053 63.7072 9.03684C63.6214 9.00315 63.5295 8.98628 63.437 8.98718Z" fill="#4995D2"/>
<path d="M15.2594 21.0843C13.6511 20.9153 12.05 20.7622 10.4558 20.6251C5.97058 20.2481 7.83118 14.7856 8.3547 12.1332C8.37684 12.0301 8.4219 11.9331 8.48669 11.849C8.55149 11.7649 8.63443 11.6958 8.72964 11.6466C11.6585 10.2141 9.69177 16.7184 9.69177 17.911C9.69145 18.0859 9.76014 18.2542 9.88377 18.3816C10.0074 18.5091 10.1766 18.5859 10.3568 18.5964L15.8608 18.9322C17.436 19.0282 18.2213 19.7501 18.2166 21.098L18.1954 24.1685C18.1954 24.3503 18.2699 24.5246 18.4026 24.6532C18.5352 24.7817 18.7152 24.8539 18.9028 24.8539L24.7535 24.8814C26.39 24.8859 27.1611 25.5142 27.0668 26.7662L26.8546 29.6174C26.8478 29.7113 26.861 29.8056 26.8935 29.8944C26.926 29.9832 26.977 30.0645 27.0434 30.1333C27.1098 30.2021 27.1901 30.257 27.2794 30.2944C27.3686 30.3318 27.4648 30.3509 27.562 30.3507C29.208 30.3507 30.8541 30.3553 32.5001 30.3644C37.1197 30.3781 37.2754 31.7078 36.3132 35.779C36.2748 35.9405 36.298 36.11 36.3787 36.2562C36.4593 36.4023 36.5919 36.5153 36.7519 36.574L42.7228 38.7535C42.8863 38.811 43.0228 38.9285 43.1048 39.0825C43.8122 40.4167 43.6778 41.1615 42.7015 41.3169C42.5371 41.3436 42.3666 41.312 42.2205 41.2277C40.2255 40.0717 38.1007 39.1944 35.8463 38.5959C35.6765 38.5507 35.4954 38.5685 35.3384 38.6458C35.1814 38.7231 35.0598 38.8544 34.9974 39.014L32.5708 45.2167C32.5298 45.3227 32.5165 45.437 32.5322 45.5493C32.5479 45.6615 32.5921 45.7682 32.6608 45.8599C32.7294 45.9515 32.8205 46.0253 32.9258 46.0745C33.0311 46.1237 33.1473 46.1469 33.2641 46.142C33.7027 46.1214 47.2151 45.7581 42.9067 48.8629C42.8267 48.9211 42.7349 48.9621 42.6374 48.9834C42.5398 49.0047 42.4387 49.0057 42.3407 48.9863C39.7373 48.4608 36.4123 48.205 32.3657 48.2187C30.0877 48.2255 29.7693 46.3202 30.5121 44.5861C31.9082 41.3054 33.2712 37.6089 34.6012 33.4966C34.6318 33.4025 34.6408 33.3032 34.6277 33.2053C34.6146 33.1073 34.5796 33.0132 34.5252 32.9293C34.4708 32.8453 34.3983 32.7736 34.3125 32.7189C34.2267 32.6642 34.1297 32.6279 34.0282 32.6125C30.2857 32.0642 23.947 34.3808 24.6686 27.6983C24.6788 27.6003 24.6672 27.5014 24.6344 27.4082C24.6017 27.315 24.5486 27.2297 24.4788 27.1582C24.409 27.0866 24.3241 27.0305 24.2299 26.9936C24.1356 26.9567 24.0343 26.9399 23.9328 26.9443C22.0015 27.0266 15.9174 27.4584 15.9244 24.3605C15.9291 23.4877 15.9174 22.615 15.8891 21.7423C15.8833 21.5766 15.8163 21.4186 15.7005 21.2976C15.5847 21.1766 15.428 21.1009 15.2594 21.0843Z" fill="#4995D2"/>
<path d="M50.7098 20.5359C50.615 20.4867 50.5328 20.4168 50.4691 20.3314C50.4054 20.2459 50.362 20.1472 50.3419 20.0424C49.8797 17.5156 49.9835 15.0231 50.6532 12.5649C50.6985 12.3963 50.8089 12.251 50.9617 12.1592C51.1144 12.0673 51.2978 12.0359 51.4739 12.0714C53.2849 12.4209 52.2804 15.889 52.1742 17.1432C52.0611 18.4409 52.7072 19.1331 54.1127 19.2199L60.9113 19.6243C61.0267 19.6325 61.1386 19.668 61.2372 19.7277C61.3358 19.7874 61.4181 19.8695 61.4772 19.967C62.7719 22.126 60.8759 22.3384 59.4256 21.8655C56.4473 20.8854 53.7023 22.03 50.7098 20.5359Z" fill="#4995D2"/>
<path d="M50.618 40.4533C50.5754 40.5568 50.5596 40.6687 50.5717 40.7795C50.5839 40.8903 50.6238 40.9965 50.6879 41.089C50.752 41.1815 50.8384 41.2574 50.9396 41.3103C51.0409 41.3631 51.1539 41.3913 51.2688 41.3923C53.9053 41.4151 56.4026 41.9908 58.7608 43.1194C58.8597 43.1686 58.9456 43.2387 59.0119 43.3243C59.0781 43.4098 59.1229 43.5086 59.1428 43.6129C59.3927 44.9928 58.8244 45.4269 57.4378 44.9151C55.0797 44.047 52.8276 43.5603 50.6816 43.4552C48.9342 43.373 47.3283 42.3998 48.1631 40.5218C49.9176 36.574 51.4622 32.5508 52.7969 28.4522C52.8297 28.3514 52.838 28.2446 52.8211 28.1402C52.8042 28.0358 52.7627 27.9366 52.6997 27.8503C52.6366 27.764 52.5539 27.693 52.4578 27.6429C52.3618 27.5927 52.2551 27.5648 52.1461 27.5612C46.0054 27.3899 42.4752 28.2123 43.784 20.3784C43.9255 19.5354 44.6541 18.2948 45.5314 19.46C46.0832 20.1865 45.779 22.3317 45.6446 23.1816C45.4323 24.5341 46.0337 25.2355 47.4486 25.2857C49.9105 25.3817 56.4545 24.7169 54.8415 29.3364C53.5115 33.138 52.1036 36.8436 50.618 40.4533Z" fill="#4995D2"/>
<path d="M8.9277 29.9805C2.87898 28.8839 -1.85389 29.7064 0.714164 21.2898C0.761663 21.133 0.865494 20.9977 1.0069 20.9084C1.14831 20.8192 1.31797 20.7819 1.48529 20.8032L1.89562 20.8512C2.06952 20.8732 2.22878 20.9576 2.34251 21.088C2.45623 21.2184 2.51631 21.3856 2.5111 21.5571L2.37668 25.1074C2.3248 26.5513 3.05821 27.3258 4.57687 27.4309C12.0476 27.9518 12.5074 28.2945 10.7954 35.3471C10.7677 35.4616 10.7094 35.5674 10.6263 35.6539C10.5432 35.7404 10.4382 35.8047 10.3214 35.8405C9.34982 36.1513 8.79328 35.7629 8.65179 34.6754C8.63764 34.5977 8.64 34.52 8.65887 34.4424L9.4866 30.803C9.50797 30.7144 9.51037 30.6225 9.49366 30.5328C9.47695 30.443 9.44147 30.3573 9.38934 30.2805C9.3372 30.2038 9.26947 30.1377 9.19017 30.0862C9.11087 30.0346 9.02161 29.9987 8.9277 29.9805Z" fill="#4995D2"/>
<path d="M62.2979 35.8199C62.2856 35.9921 62.3413 36.1625 62.4541 36.2972C62.5669 36.4318 62.7284 36.5208 62.9063 36.5464C64.484 36.7726 69.0258 36.7589 69.1744 39.0275C69.183 39.1479 69.158 39.2685 69.1021 39.3769C69.0461 39.4854 68.9612 39.5777 68.856 39.6443C68.1203 40.1104 67.4411 40.035 66.8186 39.4182C66.7087 39.3073 66.5637 39.2371 66.4082 39.2194L62.3758 38.6848C61.2344 38.534 60.5552 37.8464 60.3383 36.6218C60.2534 36.142 59.8006 27.7529 62.4465 30.4054C62.5155 30.4743 62.5688 30.5562 62.6029 30.646C62.6371 30.7357 62.6512 30.8312 62.6446 30.9263L62.2979 35.8199Z" fill="#4995D2"/>
<path d="M17.7427 41.4196C19.0019 41.8857 23.5721 42.7424 24.5484 44.1954C24.629 44.3153 24.6697 44.4562 24.6646 44.5986C24.6595 44.7409 24.609 44.8779 24.5201 44.9905C23.3598 46.4435 22.0652 44.9699 21.0111 44.682C15.6486 43.2222 13.5262 43.0645 15.493 36.6425C15.5195 36.5521 15.566 36.468 15.6294 36.3959C15.6929 36.3237 15.7718 36.2653 15.8608 36.2244C18.344 35.0661 17.1272 39.8775 17.297 40.8919C17.3166 41.0107 17.3683 41.1223 17.4466 41.215C17.5249 41.3077 17.6271 41.3784 17.7427 41.4196Z" fill="#4995D2"/>
</svg>
