<svg width="124" height="27" viewBox="0 0 124 27" fill="none" xmlns="http://www.w3.org/2000/svg">
<path d="M23.7814 9.41748C23.6973 9.26558 23.5751 9.13823 23.4268 9.04791C23.2785 8.95759 23.1092 8.90745 22.9356 8.9024C22.762 8.89736 22.5902 8.93761 22.4369 9.01916C22.2836 9.10072 22.1542 9.22074 22.0614 9.36749C20.3481 12.0942 18.6614 14.8208 17.0014 17.5475C13.8814 22.6742 9.33138 25.6008 3.35138 26.3275C1.07138 26.6075 -0.0452626 25.5475 0.00140404 23.1475C0.00629792 22.8952 0.107303 22.6543 0.283875 22.474C0.460447 22.2937 0.699207 22.1876 0.951355 22.1775C6.21136 21.9242 10.198 19.6208 12.9114 15.2675C15.9047 10.4675 18.7414 5.76748 21.4214 1.16748C22.3281 -0.385854 23.2347 -0.389136 24.1414 1.15753C27.9414 7.62753 36.3214 26.8875 46.5114 20.6375C51.2514 17.7375 57.5013 6.14748 59.5613 2.16748C60.7747 -0.17252 61.9647 -0.345812 63.1314 1.64752C66.8114 7.90752 74.7213 26.4475 84.5613 20.6775C89.6513 17.6975 94.9014 6.97749 98.4014 1.23749C99.3348 -0.295846 100.255 -0.285817 101.161 1.26752C105.301 8.36752 110.871 21.5475 120.431 22.1175C122.881 22.2675 125.131 23.8875 122.381 26.1575C122.212 26.2941 122.006 26.3745 121.791 26.3875C115.471 26.6675 110.501 24.2475 106.881 19.1275C104.615 15.9342 102.525 12.6675 100.611 9.32751C100.018 8.30751 99.4381 8.3142 98.8714 9.34753C96.8581 12.9675 94.6647 16.4675 92.2913 19.8475C85.9013 28.9475 75.1314 28.1175 68.7514 19.4475C66.3914 16.2475 64.2714 12.8908 62.3914 9.3775C61.7714 8.22417 61.1781 8.2342 60.6114 9.40753C58.5314 13.6675 55.9014 17.6075 52.7214 21.2275C43.8714 31.2975 34.2514 25.6275 28.2714 16.7775C26.6647 14.3975 25.168 11.9441 23.7814 9.41748Z" fill="#001133"/>
</svg>
