<svg width="89" height="10" viewBox="0 0 89 10" fill="none" xmlns="http://www.w3.org/2000/svg">
<path d="M17.1182 3.54329C17.0576 3.48613 16.9697 3.43822 16.8629 3.40424C16.7562 3.37025 16.6343 3.35139 16.5094 3.34949C16.3844 3.34759 16.2607 3.36274 16.1504 3.39342C16.04 3.42411 15.9469 3.46926 15.8801 3.52448C14.6468 4.55037 13.4327 5.57627 12.2378 6.60216C9.99203 8.53105 6.71686 9.63221 2.41237 9.90561C0.771194 10.011 -0.0325807 9.61214 0.00101065 8.70915C0.00453333 8.61423 0.0772381 8.52358 0.204337 8.45574C0.331436 8.38791 0.503299 8.348 0.684799 8.34418C4.47102 8.24887 7.34069 7.38226 9.29379 5.74434C11.4484 3.93836 13.4903 2.16999 15.4194 0.439259C16.072 -0.145176 16.7247 -0.146411 17.3773 0.435516C20.1126 2.86982 26.1447 10.1163 33.4796 7.76477C36.8915 6.67366 41.3903 2.31296 42.8731 0.815505C43.7465 -0.06491 44.6031 -0.13011 45.4429 0.619873C48.0918 2.97517 53.7855 9.95075 60.8684 7.77982C64.5323 6.6586 68.3114 2.62525 70.8307 0.465599C71.5026 -0.111311 72.1648 -0.107537 72.8174 0.476897C75.7974 3.14824 79.8067 8.10715 86.6882 8.32161C88.4517 8.37805 90.0713 8.98758 88.0919 9.84166C87.9701 9.89304 87.8216 9.92329 87.6671 9.92819C83.1179 10.0335 79.5405 9.12302 76.9347 7.19664C75.3032 5.99516 73.7987 4.7661 72.4215 3.50944C71.9944 3.12567 71.5769 3.12818 71.169 3.51697C69.7198 4.87898 68.1409 6.19584 66.4326 7.46755C61.833 10.8914 54.0806 10.5791 49.4882 7.31704C47.7895 6.11305 46.2635 4.85012 44.9102 3.52824C44.4639 3.09431 44.0368 3.09808 43.6289 3.53954C42.1317 5.14235 40.2386 6.62476 37.9496 7.98677C31.5792 11.7756 24.6546 9.64224 20.3501 6.31247C19.1936 5.41701 18.1163 4.49393 17.1182 3.54329Z" fill="#001133"/>
</svg>
